<svg width="338" height="135" viewBox="0 0 338 135" fill="none" xmlns="http://www.w3.org/2000/svg">
<g clip-path="url(#clip0_4_2761)">
<path d="M89.8297 61.5154C88.1854 64.1696 85.9687 66.7946 83.1797 69.3904C80.3979 71.979 77.2224 74.305 73.6568 76.3759C70.0875 78.4467 66.1974 80.1201 61.9901 81.3925C57.7791 82.6649 53.4297 83.3029 48.938 83.3029C45.4161 83.3029 41.9088 82.9857 38.4088 82.355C34.9088 81.7316 31.5474 80.78 28.3317 79.4967C25.1125 78.2061 22.1192 76.5764 19.3484 74.6113C16.5776 72.6389 14.164 70.3165 12.1151 67.6404C10.0625 64.9571 8.45466 61.9092 7.28799 58.4967C6.12133 55.0842 5.53799 51.2889 5.53799 47.1071C5.53799 43.0347 6.13591 39.1701 7.33174 35.5134C8.53487 31.8602 10.2192 28.4769 12.3776 25.3634C14.5359 22.2425 17.0916 19.4279 20.0484 16.9196C23.0125 14.4113 26.25 12.2821 29.7609 10.5321C33.2791 8.77481 36.987 7.42221 40.888 6.47794C44.7854 5.53731 48.7703 5.06335 52.8463 5.06335C57.338 5.06335 61.5562 5.59929 65.5047 6.66752C69.4604 7.72846 72.9166 9.2269 75.8734 11.1592C78.8375 13.0842 81.1818 15.3993 82.9026 18.1009C84.6234 20.7951 85.4838 23.7993 85.4838 27.1134C85.4838 30.1759 84.7693 33.0925 83.3401 35.8634C81.9182 38.6269 79.964 41.0514 77.4776 43.1404C74.9875 45.2331 72.0818 46.8847 68.7568 48.0988C65.4318 49.3165 61.888 49.9217 58.1255 49.9217C55.0922 49.9217 52.4088 49.5498 50.0755 48.7988C47.7495 48.0514 45.8026 47.016 44.2276 45.6925C42.6599 44.3727 41.4786 42.8269 40.6838 41.055C39.8854 39.2759 39.488 37.3618 39.488 35.3092C39.488 33.5993 39.7541 32.0389 40.2901 30.6279C40.8333 29.2206 41.4276 28.0139 42.0692 27.0113C42.7109 26.0014 43.3161 25.2102 43.8922 24.6342C44.4646 24.0509 44.7854 23.7264 44.8547 23.6571C45.0297 23.4821 45.2265 23.3727 45.4526 23.3217C45.6859 23.2743 45.9047 23.2488 46.1088 23.2488C46.6703 23.2488 47.1442 23.4238 47.5234 23.7738C47.9026 24.1165 48.0922 24.5613 48.0922 25.1154C48.0922 25.7498 47.8661 26.2748 47.4213 26.6904C47.3521 26.7196 47.1078 26.9529 46.6922 27.3904C46.2729 27.8279 45.8172 28.4222 45.3213 29.1696C44.8328 29.9206 44.3916 30.8175 43.9943 31.8675C43.5932 32.9102 43.3963 34.055 43.3963 35.3092C43.3963 37.2925 43.8375 38.966 44.7234 40.3259C45.6166 41.6785 46.7724 42.7831 48.1942 43.6363C49.6234 44.493 51.2057 45.1055 52.9484 45.4738C54.6984 45.8347 56.4411 46.0134 58.1838 46.0134C61.4213 46.0134 64.4547 45.4956 67.2838 44.4529C70.1203 43.4029 72.5995 42.0102 74.7213 40.2675C76.8505 38.5285 78.5203 36.5269 79.738 34.2592C80.963 31.9951 81.5755 29.629 81.5755 27.1571C81.5755 24.4446 80.8062 21.9654 79.2713 19.7196C77.7437 17.4738 75.6729 15.5597 73.0588 13.9738C70.4521 12.3915 67.4005 11.1665 63.9005 10.2988C60.4005 9.42377 56.6672 8.98627 52.7005 8.98627C49.7036 8.98627 46.5609 9.34721 43.2651 10.0654C39.9765 10.7764 36.7317 11.8446 33.5234 13.2738C30.3224 14.6956 27.2708 16.4675 24.3651 18.5967C21.4557 20.7186 18.9036 23.1977 16.7088 26.0342C14.5213 28.8743 12.7713 32.0535 11.4588 35.5717C10.1536 39.0826 9.50466 42.929 9.50466 47.1071C9.50466 50.8988 10.0333 54.3331 11.0942 57.4029C12.1515 60.4654 13.6208 63.1889 15.4984 65.5696C17.3833 67.954 19.5854 70.0139 22.1047 71.7529C24.6312 73.4956 27.3474 74.9321 30.2567 76.0696C33.1734 77.1998 36.2104 78.0347 39.3713 78.5779C42.5396 79.1139 45.6932 79.38 48.8359 79.38C53.0068 79.38 57.0208 78.7967 60.8818 77.63C64.75 76.4634 68.3265 74.9321 71.6151 73.0363C74.9109 71.1404 77.8276 69.0113 80.3651 66.6488C82.9099 64.279 84.9333 61.891 86.4318 59.4884C86.6068 59.1785 86.8474 58.9451 87.1609 58.7884C87.4708 58.6243 87.8026 58.5404 88.1526 58.5404C88.7432 58.5404 89.2172 58.7446 89.5672 59.1529C89.9172 59.554 90.0922 59.9951 90.0922 60.48C90.0922 60.655 90.0703 60.83 90.0338 61.005C89.9937 61.18 89.9245 61.3514 89.8297 61.5154Z" fill="#D48B70" fill-opacity="0.4"/>
<path d="M135.563 66.328C135.425 66.6123 135.14 67.1957 134.703 68.078C134.265 68.9639 133.704 69.9847 133.026 71.1405C132.355 72.2889 131.568 73.4884 130.663 74.7425C129.759 75.9894 128.746 77.1342 127.63 78.1842C126.511 79.2269 125.304 80.0873 124.013 80.7655C122.73 81.4436 121.377 81.7863 119.959 81.7863C117.936 81.7863 116.233 81.1446 114.855 79.8613C113.484 78.5707 112.482 76.9446 111.851 74.9905C110.673 76.9738 109.262 78.5488 107.622 79.7155C105.988 80.8821 104.355 81.4655 102.722 81.4655C101.427 81.4655 100.257 81.2321 99.2072 80.7655C98.1645 80.2988 97.2822 79.6389 96.553 78.7821C95.8238 77.929 95.2587 76.9264 94.8613 75.778C94.4603 74.6332 94.2634 73.379 94.2634 72.0155C94.2634 69.303 94.7191 66.9113 95.6342 64.8405C96.5566 62.7696 97.7342 61.0415 99.1634 59.6488C100.593 58.2488 102.168 57.2061 103.888 56.5134C105.617 55.8134 107.279 55.4634 108.876 55.4634C109.955 55.4634 110.947 55.6165 111.851 55.9155C112.762 56.2071 113.543 56.528 114.184 56.878C114.826 57.228 115.322 57.5488 115.672 57.8405C116.022 58.1321 116.211 58.2998 116.24 58.3363C116.627 58.7957 116.824 59.266 116.824 59.7509C116.824 60.2686 116.627 60.728 116.24 61.1363C115.861 61.5373 115.409 61.7342 114.884 61.7342C114.33 61.7342 113.856 61.541 113.47 61.1509C113.4 61.0853 113.244 60.9577 113.003 60.7717C112.759 60.5785 112.427 60.378 112.011 60.1738C111.592 59.9623 111.096 59.7764 110.524 59.6196C109.948 59.4665 109.299 59.3863 108.57 59.3863C107.49 59.3863 106.338 59.6306 105.113 60.1155C103.896 60.604 102.784 61.3623 101.774 62.3905C100.76 63.4113 99.9145 64.7019 99.2363 66.255C98.5655 67.8009 98.2301 69.6347 98.2301 71.753C98.2301 72.4165 98.2957 73.0873 98.4342 73.7655C98.5691 74.4472 98.8134 75.0707 99.1634 75.6321C99.5134 76.1863 99.9837 76.6384 100.578 76.9884C101.169 77.3311 101.898 77.4988 102.765 77.4988C103.396 77.4988 104.122 77.291 104.938 76.8717C105.755 76.4561 106.535 75.8144 107.286 74.9467C108.034 74.0717 108.708 72.9743 109.313 71.6509C109.926 70.3311 110.352 68.7634 110.597 66.955C110.673 66.4701 110.903 66.0618 111.282 65.73C111.661 65.4019 112.113 65.2342 112.638 65.2342C113.123 65.2342 113.546 65.4238 113.907 65.803C114.275 66.1821 114.48 66.6196 114.52 67.1155C114.556 67.779 114.625 68.7123 114.724 69.9155C114.83 71.1113 115.063 72.3035 115.424 73.4884C115.792 74.666 116.343 75.6905 117.072 76.5655C117.808 77.4332 118.822 77.8634 120.105 77.8634C120.94 77.8634 121.768 77.641 122.584 77.1925C123.401 76.7368 124.203 76.1353 124.99 75.3842C125.778 74.6368 126.525 73.7873 127.236 72.8321C127.944 71.8696 128.596 70.9035 129.19 69.93C129.781 68.9603 130.302 68.0196 130.751 67.1155C131.207 66.204 131.597 65.4165 131.918 64.753C132.082 64.3738 132.33 64.0821 132.661 63.878C133 63.6665 133.361 63.5571 133.74 63.5571C134.331 63.5571 134.809 63.7759 135.17 64.2134C135.538 64.6509 135.724 65.1139 135.724 65.5988C135.724 65.8431 135.669 66.0873 135.563 66.328Z" fill="#D48B70" fill-opacity="0.4"/>
<path d="M137.443 59.4301C137.305 60.3744 137.13 61.253 136.918 62.0697C136.714 62.8863 136.513 63.6009 136.32 64.2134C136.123 64.8259 135.959 65.3217 135.824 65.7009C135.686 66.0801 135.598 66.2915 135.562 66.328C135.212 67.1264 134.603 67.5238 133.739 67.5238C133.25 67.5238 132.798 67.3452 132.383 66.9842C131.963 66.616 131.756 66.153 131.756 65.5988C131.756 65.3874 131.788 65.2306 131.858 65.1322C131.923 65.0264 132.025 64.8186 132.164 64.5051C132.31 64.1842 132.485 63.6592 132.689 62.9301C132.9 62.2009 133.163 61.0707 133.476 59.5322C132.882 59.5322 132.27 59.5176 131.639 59.4884C131.015 59.452 130.436 59.328 129.903 59.1238C129.36 58.9124 128.919 58.5806 128.576 58.1322C128.226 57.6764 128.051 57.0493 128.051 56.2509C128.051 55.6603 128.219 54.8582 128.547 53.8447C128.879 52.8348 129.32 51.8431 129.874 50.8697C130.428 49.8999 131.048 49.0577 131.741 48.3467C132.441 47.6285 133.141 47.2676 133.841 47.2676C134.636 47.2676 135.288 47.5665 135.795 48.1572C136.298 48.7514 136.692 49.477 136.976 50.3301C137.257 51.1759 137.458 52.0728 137.574 53.0134C137.698 53.9467 137.764 54.7634 137.764 55.4634C138.347 55.4634 138.923 55.4561 139.499 55.4342C140.083 55.416 140.63 55.4051 141.147 55.4051C143.131 55.4051 144.64 55.8426 145.683 56.7176C146.733 57.5853 147.258 59.0145 147.258 61.0051C147.258 61.8035 147.203 62.6384 147.097 63.5134C146.999 64.3811 146.878 65.2744 146.733 66.1967C146.594 67.1228 146.474 68.0342 146.368 68.9384C146.27 69.8426 146.222 70.7322 146.222 71.6072C146.222 72.854 146.39 73.8895 146.733 74.7134C147.083 75.5301 147.52 76.1827 148.045 76.6676C148.57 77.1561 149.128 77.4952 149.722 77.6884C150.313 77.8744 150.852 77.9655 151.341 77.9655C152.836 77.9655 154.247 77.4806 155.57 76.5072C156.89 75.5374 158.108 74.3634 159.216 72.9926C160.332 71.6145 161.334 70.1598 162.22 68.6322C163.113 67.0973 163.853 65.7556 164.437 64.6072C164.612 64.2863 164.852 64.0457 165.166 63.878C165.487 63.703 165.822 63.6155 166.172 63.6155C166.792 63.6155 167.281 63.816 167.631 64.2134C167.981 64.6145 168.156 65.0556 168.156 65.5405C168.156 65.8905 168.083 66.2077 167.937 66.4884C167.138 67.9103 166.209 69.5181 165.151 71.3155C164.09 73.1056 162.88 74.7863 161.52 76.3613C160.157 77.929 158.633 79.2488 156.941 80.328C155.257 81.4072 153.405 81.9467 151.385 81.9467C150.131 81.9467 148.942 81.7061 147.826 81.2322C146.718 80.7655 145.756 80.091 144.939 79.2051C144.122 78.3119 143.47 77.2145 142.985 75.9092C142.496 74.6077 142.256 73.1348 142.256 71.4905C142.256 69.7514 142.423 68.0197 142.766 66.2988C143.116 64.578 143.291 62.9374 143.291 61.3697C143.291 60.7098 143.138 60.2139 142.839 59.8822C142.547 59.554 141.895 59.3863 140.885 59.3863C140.396 59.3863 139.868 59.3863 139.295 59.3863C138.719 59.3863 138.103 59.4009 137.443 59.4301ZM133.943 55.5655C133.943 55.3249 133.932 55.004 133.914 54.603C133.903 54.2056 133.87 53.8155 133.812 53.4363C133.761 53.0499 133.695 52.7181 133.608 52.4447C133.52 52.1639 133.422 52.0217 133.316 52.0217C133.207 52.0217 133.075 52.153 132.922 52.4155C132.765 52.6707 132.601 52.9806 132.426 53.3488C132.251 53.7207 132.095 54.1145 131.96 54.5301C131.821 54.9493 131.719 55.2957 131.653 55.5655H133.943Z" fill="#D48B70" fill-opacity="0.4"/>
<path d="M184.659 65.7008C186.358 73.7435 188.83 77.7613 192.068 77.7613C193.322 77.7613 194.521 77.3019 195.67 76.3758C196.815 75.4534 197.886 74.3269 198.878 72.9925C199.87 71.6508 200.748 70.2326 201.518 68.7342C202.283 67.2394 202.91 65.9305 203.399 64.8113C203.749 63.9764 204.354 63.5571 205.222 63.5571C205.783 63.5571 206.257 63.7685 206.636 64.1842C207.023 64.6034 207.22 65.0555 207.22 65.5404C207.22 65.8248 207.165 66.0654 207.059 66.2696C206.815 66.8639 206.454 67.655 205.98 68.6467C205.513 69.6383 204.937 70.7029 204.259 71.8404C203.578 72.9706 202.819 74.1264 201.984 75.3113C201.146 76.4998 200.223 77.5644 199.213 78.505C198.211 79.4383 197.143 80.2113 196.005 80.8238C194.875 81.4253 193.686 81.7279 192.432 81.7279C190.099 81.7279 188.094 80.9185 186.424 79.3071C184.75 77.6847 183.307 75.0123 182.093 71.2863C180.419 74.8373 178.728 77.4113 177.018 79.0154C175.315 80.6196 173.474 81.4217 171.491 81.4217C170.448 81.4217 169.438 81.254 168.457 80.9258C167.484 80.5977 166.634 80.0472 165.905 79.2779C165.176 78.5123 164.582 77.5279 164.126 76.3321C163.678 75.129 163.455 73.656 163.455 71.9133C163.455 69.5144 163.871 67.305 164.709 65.2925C165.544 63.2727 166.623 61.5373 167.947 60.0863C169.267 58.6389 170.736 57.5159 172.351 56.7175C173.973 55.9227 175.581 55.5217 177.178 55.5217C177.703 55.5217 178.155 55.7076 178.534 56.0758C178.921 56.4368 179.118 56.8925 179.118 57.4467C179.118 57.9352 178.957 58.3727 178.636 58.7592C178.323 59.1383 177.911 59.3644 177.397 59.43C176.347 59.5758 175.228 59.9113 174.043 60.4363C172.865 60.954 171.782 61.705 170.791 62.6967C169.799 63.6883 168.975 64.9534 168.326 66.4883C167.684 68.0159 167.363 69.8425 167.363 71.9717C167.363 73.7144 167.717 75.0706 168.428 76.0404C169.146 77.0139 170.185 77.4988 171.549 77.4988C172.103 77.4988 172.69 77.3529 173.313 77.0613C173.944 76.7623 174.615 76.179 175.326 75.3113C176.044 74.4363 176.828 73.204 177.674 71.6071C178.527 70.0029 179.482 67.8956 180.532 65.2779C179.938 62.2154 179.395 58.6826 178.899 54.6758C178.41 50.6727 178.17 46.1993 178.17 41.2592C178.17 39.1008 178.235 36.8514 178.374 34.5071C178.52 32.1555 178.746 29.855 179.059 27.6092C179.38 25.3633 179.796 23.2305 180.313 21.2071C180.838 19.1873 181.473 17.4118 182.224 15.8842C182.971 14.3493 183.85 13.1389 184.863 12.2529C185.873 11.3597 187.022 10.9113 188.305 10.9113C189.45 10.9113 190.423 11.2284 191.222 11.8592C192.028 12.4826 192.684 13.354 193.191 14.4696C193.694 15.5779 194.069 16.9196 194.313 18.4946C194.554 20.0623 194.678 21.7831 194.678 23.6571C194.678 27.704 194.328 31.7435 193.628 35.7758C192.935 39.8118 192.075 43.6764 191.047 47.3696C190.026 51.0665 188.936 54.479 187.78 57.6071C186.632 60.7389 185.593 63.4368 184.659 65.7008ZM190.77 23.6133C190.77 22.7383 190.741 21.7977 190.682 20.7842C190.631 19.7743 190.511 18.8264 190.318 17.9404C190.121 17.0581 189.869 16.318 189.559 15.7238C189.246 15.1331 188.83 14.8342 188.305 14.8342C187.437 14.8342 186.632 15.6034 185.884 17.1383C185.133 18.6659 184.477 20.6748 183.916 23.1613C183.361 25.6514 182.917 28.4696 182.588 31.6196C182.257 34.7696 182.093 37.9488 182.093 41.1571C182.093 44.2196 182.213 47.2821 182.457 50.3446C182.698 53.4071 182.975 56.1415 183.288 58.5404C184.298 55.868 185.257 53.1118 186.161 50.2717C187.066 47.4352 187.857 44.5368 188.538 41.58C189.217 38.6159 189.756 35.63 190.157 32.6258C190.566 29.6144 190.77 26.6102 190.77 23.6133Z" fill="#D48B70" fill-opacity="0.4"/>
<path d="M243.816 66.328C243.677 66.6124 243.393 67.1957 242.955 68.078C242.518 68.964 241.956 69.9848 241.278 71.1405C240.607 72.289 239.82 73.4884 238.916 74.7426C238.012 75.9895 236.998 77.1343 235.882 78.1843C234.763 79.227 233.556 80.0874 232.266 80.7655C230.982 81.4436 229.63 81.7863 228.212 81.7863C226.188 81.7863 224.486 81.1447 223.107 79.8613C221.737 78.5707 220.734 76.9447 220.103 74.9905C218.926 76.9738 217.515 78.5488 215.874 79.7155C214.241 80.8822 212.607 81.4655 210.974 81.4655C209.68 81.4655 208.51 81.2322 207.46 80.7655C206.417 80.2988 205.535 79.639 204.805 78.7822C204.076 77.9291 203.511 76.9265 203.114 75.778C202.713 74.6332 202.516 73.3791 202.516 72.0155C202.516 69.303 202.972 66.9113 203.887 64.8405C204.809 62.7697 205.987 61.0416 207.416 59.6488C208.845 58.2488 210.42 57.2061 212.141 56.5134C213.869 55.8134 215.531 55.4634 217.128 55.4634C218.207 55.4634 219.199 55.6166 220.103 55.9155C221.015 56.2072 221.795 56.528 222.437 56.878C223.078 57.228 223.574 57.5488 223.924 57.8405C224.274 58.1322 224.464 58.2999 224.493 58.3363C224.879 58.7957 225.076 59.266 225.076 59.7509C225.076 60.2686 224.879 60.728 224.493 61.1363C224.114 61.5374 223.662 61.7343 223.137 61.7343C222.582 61.7343 222.108 61.541 221.722 61.1509C221.653 61.0853 221.496 60.9577 221.255 60.7718C221.011 60.5785 220.679 60.378 220.264 60.1738C219.844 59.9624 219.349 59.7765 218.776 59.6197C218.2 59.4666 217.551 59.3863 216.822 59.3863C215.743 59.3863 214.591 59.6306 213.366 60.1155C212.148 60.6041 211.036 61.3624 210.026 62.3905C209.013 63.4113 208.167 64.702 207.489 66.2551C206.818 67.8009 206.482 69.6348 206.482 71.753C206.482 72.4166 206.548 73.0874 206.687 73.7655C206.822 74.4473 207.066 75.0707 207.416 75.6322C207.766 76.1863 208.236 76.6384 208.83 76.9884C209.421 77.3311 210.15 77.4988 211.018 77.4988C211.649 77.4988 212.374 77.291 213.191 76.8718C214.007 76.4561 214.788 75.8145 215.539 74.9468C216.286 74.0718 216.961 72.9744 217.566 71.6509C218.178 70.3311 218.605 68.7634 218.849 66.9551C218.926 66.4702 219.155 66.0619 219.535 65.7301C219.914 65.402 220.366 65.2343 220.891 65.2343C221.376 65.2343 221.799 65.4238 222.16 65.803C222.528 66.1822 222.732 66.6197 222.772 67.1155C222.808 67.7791 222.878 68.7124 222.976 69.9155C223.082 71.1113 223.315 72.3035 223.676 73.4884C224.044 74.666 224.595 75.6905 225.324 76.5655C226.061 77.4332 227.074 77.8634 228.357 77.8634C229.192 77.8634 230.02 77.641 230.837 77.1926C231.653 76.7369 232.455 76.1353 233.243 75.3843C234.03 74.6369 234.778 73.7874 235.489 72.8322C236.196 71.8697 236.849 70.9035 237.443 69.9301C238.033 68.9603 238.555 68.0197 239.003 67.1155C239.459 66.2041 239.849 65.4166 240.17 64.753C240.334 64.3738 240.582 64.0822 240.914 63.878C241.253 63.6666 241.614 63.5572 241.993 63.5572C242.583 63.5572 243.061 63.7759 243.422 64.2134C243.79 64.6509 243.976 65.114 243.976 65.5988C243.976 65.8431 243.922 66.0874 243.816 66.328ZM213.001 47.428L221.357 39.4801C221.707 39.1702 222.108 39.0134 222.568 39.0134C223.013 39.0134 223.414 39.1884 223.764 39.5384C224.114 39.8884 224.289 40.3077 224.289 40.7926C224.289 41.2811 224.114 41.6785 223.764 41.9884L215.407 49.9218C215.028 50.2426 214.627 50.403 214.212 50.403C213.723 50.403 213.315 50.228 212.987 49.878C212.655 49.528 212.491 49.127 212.491 48.6676C212.491 48.1827 212.658 47.7707 213.001 47.428Z" fill="#D48B70" fill-opacity="0.4"/>
<path d="M267.002 66.328C267.002 69.529 266.426 72.2597 265.281 74.5238C264.132 76.7915 262.721 78.516 261.052 79.7009H261.256C263.316 79.7009 265.186 79.2415 266.87 78.3155C268.562 77.3931 270.082 76.2118 271.435 74.7717C272.795 73.3243 274.016 71.7092 275.095 69.9301C276.175 68.1509 277.13 66.4264 277.968 64.753C278.143 64.3738 278.395 64.0821 278.727 63.878C279.055 63.6665 279.416 63.5571 279.806 63.5571C280.389 63.5571 280.856 63.7686 281.206 64.1842C281.556 64.6035 281.731 65.0556 281.731 65.5405C281.731 65.8249 281.676 66.0874 281.57 66.328C280.666 68.3514 279.587 70.3821 278.333 72.4238C277.079 74.4582 275.613 76.2884 273.943 77.9217C272.281 79.5551 270.403 80.8821 268.314 81.903C266.221 82.9311 263.903 83.4488 261.358 83.4488C259.52 83.4488 257.73 83.1608 255.991 82.5884C254.249 82.0124 252.714 81.1191 251.383 79.9051C250.894 79.5259 250.479 79.1176 250.129 78.6801C249.786 78.2426 249.509 77.8342 249.298 77.4551C249.228 77.3785 249.195 77.3056 249.195 77.2363C248.991 76.9264 248.889 76.5946 248.889 76.2446C248.889 75.7999 249.042 75.3806 249.356 74.9905C249.385 74.9249 249.418 74.8847 249.458 74.8738C249.494 74.8556 249.531 74.8264 249.56 74.7863C249.91 74.4764 250.293 74.3014 250.712 74.2613H250.873C251.048 74.2613 251.168 74.2832 251.237 74.3196C251.266 74.3196 251.288 74.3306 251.31 74.3488C251.328 74.3597 251.354 74.3634 251.383 74.3634C251.489 74.3634 251.609 74.4035 251.748 74.4801C251.784 74.5092 251.824 74.5238 251.864 74.5238C252.174 74.7389 252.433 75.0014 252.637 75.3113C252.878 75.7306 253.162 76.1134 253.483 76.4634C253.753 76.7368 254.081 76.9884 254.46 77.2217C254.846 77.4478 255.284 77.5571 255.773 77.5571C256.648 77.5571 257.515 77.2946 258.383 76.7696C259.258 76.2446 260.038 75.4972 260.731 74.5238C261.431 73.554 262 72.3728 262.437 70.9801C262.875 69.5801 263.093 68.0306 263.093 66.328C263.093 65.0738 262.962 64.0056 262.7 63.1196C262.437 62.2264 262.105 61.5009 261.708 60.9467C261.307 60.3926 260.88 59.9842 260.425 59.7217C259.965 59.4592 259.528 59.328 259.112 59.328C258.179 59.328 257.231 59.8202 256.268 60.8009C255.313 61.7743 254.365 63.0103 253.425 64.5051C252.48 66.0035 251.547 67.6551 250.625 69.4634C249.71 71.2717 248.78 73.029 247.839 74.728C247.77 80.379 247.671 85.7566 247.548 90.8717C247.431 95.9832 247.219 100.734 246.92 105.12C246.629 109.513 246.22 113.483 245.695 117.034C245.17 120.582 244.456 123.619 243.552 126.149C242.648 128.675 241.532 130.615 240.212 131.968C238.889 133.327 237.274 134.009 235.356 134.009C234.765 134.009 234.087 133.885 233.329 133.645C232.563 133.4 231.849 132.905 231.185 132.157C230.525 131.406 229.967 130.334 229.508 128.934C229.052 127.542 228.823 125.682 228.823 123.349C228.823 120.392 229.194 116.965 229.931 113.068C230.66 109.167 231.695 105.032 233.037 100.657C234.379 96.2894 235.976 91.8087 237.82 87.2113C239.658 82.6212 241.689 78.1514 243.916 73.7946C243.916 72.5806 243.924 71.3811 243.945 70.1926C243.964 69.0077 243.975 67.8592 243.975 66.7509C243.515 67.2686 242.976 67.5238 242.356 67.5238C241.762 67.5238 241.291 67.316 240.941 66.8967C240.591 66.4811 240.416 66.029 240.416 65.5405C240.416 65.2999 240.467 65.0374 240.577 64.753C241.412 62.8389 242.053 61.0196 242.502 59.2988C242.957 57.578 243.296 56.0686 243.523 54.7634C243.756 53.4509 243.887 52.4155 243.916 51.6571C243.953 50.8915 243.975 50.4868 243.975 50.4467C243.975 49.9327 244.164 49.4842 244.543 49.1051C244.93 48.7186 245.404 48.5217 245.958 48.5217C246.483 48.5217 246.935 48.7077 247.314 49.0759C247.693 49.4368 247.883 49.8926 247.883 50.4467V66.4884C248.689 65.1285 249.491 63.7868 250.289 62.4634C251.095 61.1436 251.941 59.9624 252.827 58.9196C253.709 57.8696 254.668 57.0238 255.7 56.3821C256.728 55.7332 257.865 55.4051 259.112 55.4051C260.297 55.4051 261.376 55.6894 262.35 56.2509C263.33 56.8051 264.165 57.5743 264.858 58.5551C265.558 59.5285 266.087 60.6842 266.448 62.0259C266.816 63.3603 267.002 64.7931 267.002 66.328ZM243.814 83.0842C242.112 86.9123 240.569 90.7587 239.191 94.6196C237.82 98.4879 236.661 102.218 235.706 105.805C234.743 109.393 234 112.75 233.475 115.882C232.95 119.021 232.687 121.774 232.687 124.136C232.687 124.727 232.727 125.369 232.804 126.061C232.873 126.761 233.015 127.407 233.227 128.001C233.431 128.592 233.723 129.087 234.102 129.488C234.481 129.886 234.988 130.086 235.618 130.086C236.767 130.086 237.758 129.361 238.593 127.913C239.428 126.473 240.132 124.523 240.708 122.065C241.28 119.615 241.758 116.794 242.137 113.607C242.524 110.428 242.83 107.096 243.056 103.618C243.289 100.136 243.453 96.6249 243.552 93.0884C243.657 89.5592 243.745 86.2233 243.814 83.0842Z" fill="#D48B70" fill-opacity="0.4"/>
<path d="M286.484 39.903C286.484 41.2264 286.021 42.3493 285.099 43.2717C284.173 44.1978 283.05 44.6571 281.73 44.6571C280.406 44.6571 279.283 44.1978 278.361 43.2717C277.435 42.3493 276.976 41.2264 276.976 39.903C276.976 39.2431 277.096 38.6269 277.34 38.0509C277.581 37.4785 277.924 36.9717 278.361 36.5342C278.799 36.0967 279.302 35.7577 279.878 35.5134C280.45 35.2728 281.066 35.1488 281.73 35.1488C282.39 35.1488 283.006 35.2728 283.582 35.5134C284.154 35.7577 284.661 36.0967 285.099 36.5342C285.536 36.9717 285.875 37.4785 286.119 38.0509C286.36 38.6269 286.484 39.2431 286.484 39.903ZM278.026 70.4988C278.026 65.4931 278.336 60.5019 278.959 55.5217C279.025 55.0259 279.24 54.5993 279.601 54.2384C279.969 53.8702 280.45 53.6842 281.044 53.6842C281.569 53.6842 282.007 53.8884 282.357 54.2967C282.707 54.6978 282.882 55.1535 282.882 55.6676C282.882 55.8827 282.838 56.5134 282.751 57.5634C282.663 58.6061 282.554 59.8493 282.43 61.2967C282.313 62.7368 282.211 64.2681 282.124 65.8905C282.036 67.5056 281.992 68.9931 281.992 70.353C281.992 72.1905 282.171 73.678 282.532 74.8155C282.9 75.9457 283.37 76.8243 283.946 77.4551C284.519 78.0785 285.128 78.4978 285.769 78.7092C286.418 78.9134 287.042 79.0155 287.636 79.0155C288.606 79.0155 289.612 78.6728 290.655 77.9801C291.705 77.2801 292.773 76.303 293.863 75.0488C294.961 73.7946 296.069 72.2889 297.188 70.528C298.304 68.7707 299.405 66.8092 300.484 64.6509C300.648 64.3009 300.885 64.0347 301.199 63.8488C301.519 63.6556 301.869 63.5571 302.249 63.5571C302.81 63.5571 303.273 63.7686 303.634 64.1842C304.002 64.6035 304.188 65.0556 304.188 65.5405C304.188 65.8905 304.115 66.1894 303.969 66.4301C303.55 67.2285 303.029 68.2056 302.409 69.3613C301.786 70.5097 301.071 71.691 300.265 72.9051C299.467 74.1228 298.588 75.3332 297.626 76.5363C296.67 77.7431 295.657 78.8222 294.578 79.7738C293.499 80.729 292.365 81.4983 291.18 82.0926C289.991 82.6832 288.792 82.9821 287.578 82.9821C286.01 82.9821 284.636 82.6504 283.451 81.9905C282.262 81.3269 281.263 80.4446 280.446 79.3363C279.63 78.2207 279.021 76.9009 278.624 75.3842C278.223 73.8676 278.026 72.2415 278.026 70.4988ZM283.553 39.903C283.553 39.4181 283.367 38.9952 282.999 38.6342C282.638 38.266 282.215 38.0801 281.73 38.0801C281.241 38.0801 280.826 38.266 280.476 38.6342C280.126 38.9952 279.951 39.4181 279.951 39.903C279.951 40.3915 280.126 40.8071 280.476 41.1571C280.826 41.5071 281.241 41.6821 281.73 41.6821C282.215 41.6821 282.638 41.5071 282.999 41.1571C283.367 40.8071 283.553 40.3915 283.553 39.903Z" fill="#D48B70" fill-opacity="0.4"/>
<path d="M324.499 75.1509C323.624 75.1509 322.855 75.0853 322.195 74.9468C321.677 75.9895 321.05 76.9556 320.314 77.8489C319.584 78.7348 318.739 79.5077 317.776 80.1676C316.821 80.8311 315.753 81.3489 314.568 81.728C313.39 82.1145 312.107 82.3114 310.718 82.3114C309.074 82.3114 307.571 82.0233 306.212 81.4509C304.859 80.8785 303.678 80.0765 302.668 79.0447C301.654 78.0166 300.874 76.7806 300.32 75.3405C299.766 73.8931 299.489 72.2999 299.489 70.5572C299.489 68.3332 299.886 66.3936 300.684 64.7384C301.479 63.0869 302.398 61.7124 303.441 60.6114C304.491 59.514 305.533 58.6973 306.576 58.1614C307.626 57.6181 308.414 57.3447 308.939 57.3447C309.529 57.3447 309.974 57.5015 310.266 57.8114C310.565 58.1249 310.718 58.5405 310.718 59.0655C310.718 59.6598 310.532 60.1082 310.164 60.4072C309.792 60.6989 309.332 60.9869 308.778 61.2676C308.224 61.541 307.63 61.9311 306.999 62.4343C306.376 62.941 305.792 63.5791 305.249 64.3447C304.713 65.114 304.272 66.0181 303.922 67.0572C303.572 68.0999 303.397 69.2666 303.397 70.5572C303.397 71.7056 303.572 72.7739 303.922 73.7655C304.272 74.7572 304.775 75.614 305.439 76.3322C306.099 77.0431 306.882 77.5973 307.787 77.9947C308.691 78.3957 309.701 78.5926 310.82 78.5926C312.803 78.5926 314.444 78.1369 315.749 77.2218C317.051 76.2994 318.053 75.1218 318.753 73.6926C316.701 72.6134 315.013 71.0822 313.693 69.0989C312.369 67.1155 311.709 64.8843 311.709 62.4051C311.709 60.4218 312.183 58.803 313.139 57.5489C314.101 56.2947 315.363 55.6676 316.93 55.6676C317.864 55.6676 318.746 55.8973 319.584 56.353C320.419 56.8015 321.159 57.516 321.801 58.4968C322.45 59.4702 322.968 60.7244 323.347 62.2593C323.733 63.7869 323.93 65.6134 323.93 67.7426C323.93 68.8509 323.788 70.0176 323.507 71.2426C323.712 71.2718 323.916 71.2864 324.12 71.2864C324.331 71.2864 324.561 71.2864 324.805 71.2864C325.99 71.2864 327.055 71.1515 327.999 70.878C328.94 70.5973 329.793 70.178 330.551 69.6239C331.317 69.0624 332.002 68.3478 332.607 67.4801C333.22 66.6051 333.807 65.5952 334.372 64.4468C334.478 64.2353 334.7 64.0348 335.043 63.8489C335.393 63.6556 335.743 63.5572 336.093 63.5572C336.538 63.5572 336.961 63.7431 337.362 64.1114C337.77 64.4723 337.974 64.9499 337.974 65.5405C337.974 65.8249 337.901 66.1311 337.755 66.4593C337.617 66.791 337.482 67.0973 337.347 67.378C336.753 68.4207 336.064 69.4197 335.276 70.3822C334.496 71.3374 333.574 72.1723 332.505 72.8905C331.444 73.6015 330.252 74.1666 328.932 74.5822C327.609 75.0015 326.132 75.191 324.499 75.1509ZM315.574 61.9968C315.574 62.6603 315.654 63.353 315.822 64.0822C315.997 64.8114 316.267 65.5369 316.639 66.2551C317.007 66.966 317.459 67.6405 317.995 68.2822C318.538 68.9239 319.176 69.4744 319.905 69.9301C320.011 69.2009 320.066 68.4864 320.066 67.7864C320.066 66.8457 319.993 65.8869 319.847 64.9134C319.708 63.9436 319.512 63.0468 319.249 62.2301C318.987 61.4134 318.658 60.7535 318.272 60.2468C317.893 59.7436 317.444 59.4884 316.93 59.4884C316.715 59.4884 316.434 59.6452 316.084 59.9551C315.742 60.2686 315.574 60.9468 315.574 61.9968Z" fill="#D48B70" fill-opacity="0.4"/>
<path d="M85.1027 56.7885C83.4584 59.4427 81.2418 62.0677 78.4527 64.6635C75.6709 67.2521 72.4954 69.5781 68.9298 71.6489C65.3605 73.7198 61.4704 75.3932 57.2631 76.6656C53.0522 77.938 48.7027 78.576 44.211 78.576C40.6892 78.576 37.1819 78.2588 33.6819 77.6281C30.1819 77.0047 26.8204 76.0531 23.6048 74.7698C20.3855 73.4791 17.3923 71.8494 14.6215 69.8843C11.8506 67.9119 9.43708 65.5896 7.38812 62.9135C5.33551 60.2302 3.7277 57.1823 2.56104 53.7698C1.39437 50.3573 0.811035 46.5619 0.811035 42.3802C0.811035 38.3078 1.40895 34.4432 2.60479 30.7864C3.80791 27.1333 5.49229 23.75 7.65062 20.6364C9.80895 17.5156 12.3647 14.701 15.3215 12.1927C18.2855 9.68434 21.523 7.55518 25.034 5.80518C28.5522 4.04788 32.26 2.69528 36.161 1.75101C40.0584 0.810384 44.0433 0.336426 48.1194 0.336426C52.611 0.336426 56.8293 0.872364 60.7777 1.94059C64.7334 3.00153 68.1897 4.49997 71.1465 6.43226C74.1105 8.35726 76.4548 10.6724 78.1756 13.3739C79.8965 16.0682 80.7569 19.0724 80.7569 22.3864C80.7569 25.4489 80.0423 28.3656 78.6131 31.1364C77.1913 33.9 75.2371 36.3244 72.7506 38.4135C70.2605 40.5062 67.3548 42.1578 64.0298 43.3718C60.7048 44.5896 57.161 45.1948 53.3985 45.1948C50.3652 45.1948 47.6819 44.8229 45.3485 44.0718C43.0225 43.3244 41.0756 42.289 39.5006 40.9656C37.9329 39.6458 36.7517 38.1 35.9569 36.3281C35.1584 34.5489 34.761 32.6349 34.761 30.5823C34.761 28.8724 35.0272 27.3119 35.5631 25.901C36.1064 24.4937 36.7006 23.2869 37.3423 22.2843C37.984 21.2744 38.5892 20.4833 39.1652 19.9073C39.7376 19.3239 40.0584 18.9994 40.1277 18.9302C40.3027 18.7552 40.4996 18.6458 40.7256 18.5948C40.959 18.5474 41.1777 18.5218 41.3819 18.5218C41.9433 18.5218 42.4173 18.6968 42.7965 19.0468C43.1756 19.3896 43.3652 19.8343 43.3652 20.3885C43.3652 21.0229 43.1392 21.5479 42.6944 21.9635C42.6251 21.9927 42.3808 22.226 41.9652 22.6635C41.5459 23.101 41.0902 23.6953 40.5944 24.4427C40.1058 25.1937 39.6647 26.0906 39.2673 27.1406C38.8662 28.1833 38.6694 29.3281 38.6694 30.5823C38.6694 32.5656 39.1105 34.239 39.9965 35.5989C40.8897 36.9515 42.0454 38.0562 43.4673 38.9093C44.8965 39.7661 46.4787 40.3786 48.2215 40.7468C49.9715 41.1078 51.7142 41.2864 53.4569 41.2864C56.6944 41.2864 59.7277 40.7687 62.5569 39.726C65.3933 38.676 67.8725 37.2833 69.9944 35.5406C72.1235 33.8015 73.7933 31.8 75.011 29.5323C76.236 27.2682 76.8485 24.9021 76.8485 22.4302C76.8485 19.7177 76.0793 17.2385 74.5444 14.9927C73.0168 12.7468 70.9459 10.8328 68.3319 9.24684C65.7251 7.66455 62.6735 6.43955 59.1735 5.57184C55.6735 4.69684 51.9402 4.25934 47.9735 4.25934C44.9767 4.25934 41.834 4.62028 38.5381 5.33851C35.2496 6.04945 32.0048 7.11768 28.7965 8.54684C25.5954 9.96872 22.5438 11.7406 19.6381 13.8698C16.7287 15.9916 14.1767 18.4708 11.9819 21.3073C9.79437 24.1474 8.04437 27.3265 6.73187 30.8448C5.42666 34.3557 4.7777 38.202 4.7777 42.3802C4.7777 46.1718 5.30635 49.6062 6.36729 52.676C7.42458 55.7385 8.89385 58.4619 10.7715 60.8427C12.6563 63.2271 14.8584 65.2869 17.3777 67.026C19.9043 68.7687 22.6204 70.2052 25.5298 71.3427C28.4465 72.4729 31.4834 73.3078 34.6444 73.851C37.8126 74.3869 40.9662 74.6531 44.109 74.6531C48.2798 74.6531 52.2939 74.0698 56.1548 72.9031C60.023 71.7364 63.5996 70.2052 66.8881 68.3093C70.184 66.4135 73.1006 64.2843 75.6381 61.9218C78.1829 59.5521 80.2064 57.164 81.7048 54.7614C81.8798 54.4515 82.1204 54.2182 82.434 54.0614C82.7439 53.8974 83.0756 53.8135 83.4256 53.8135C84.0163 53.8135 84.4902 54.0177 84.8402 54.426C85.1902 54.827 85.3652 55.2682 85.3652 55.7531C85.3652 55.9281 85.3433 56.1031 85.3069 56.2781C85.2668 56.4531 85.1975 56.6244 85.1027 56.7885Z" fill="white"/>
<path d="M130.836 61.601C130.698 61.8854 130.414 62.4687 129.976 63.351C129.539 64.237 128.977 65.2578 128.299 66.4135C127.628 67.562 126.841 68.7614 125.936 70.0156C125.032 71.2625 124.019 72.4073 122.903 73.4573C121.784 74.5 120.577 75.3604 119.286 76.0385C118.003 76.7167 116.651 77.0594 115.232 77.0594C113.209 77.0594 111.506 76.4177 110.128 75.1344C108.757 73.8437 107.755 72.2177 107.124 70.2635C105.946 72.2469 104.535 73.8219 102.895 74.9885C101.261 76.1552 99.6281 76.7385 97.9948 76.7385C96.7005 76.7385 95.5302 76.5052 94.4802 76.0385C93.4375 75.5719 92.5552 74.912 91.8261 74.0552C91.0969 73.2021 90.5318 72.1995 90.1344 71.051C89.7333 69.9062 89.5365 68.6521 89.5365 67.2885C89.5365 64.576 89.9922 62.1844 90.9073 60.1135C91.8297 58.0427 93.0073 56.3146 94.4365 54.9219C95.8656 53.5219 97.4406 52.4792 99.1615 51.7865C100.89 51.0865 102.552 50.7365 104.149 50.7365C105.228 50.7365 106.22 50.8896 107.124 51.1885C108.035 51.4802 108.816 51.801 109.457 52.151C110.099 52.501 110.595 52.8219 110.945 53.1135C111.295 53.4052 111.484 53.5729 111.514 53.6094C111.9 54.0687 112.097 54.5391 112.097 55.024C112.097 55.5417 111.9 56.001 111.514 56.4094C111.134 56.8104 110.682 57.0073 110.157 57.0073C109.603 57.0073 109.129 56.8141 108.743 56.424C108.673 56.3583 108.517 56.2307 108.276 56.0448C108.032 55.8516 107.7 55.651 107.284 55.4469C106.865 55.2354 106.369 55.0495 105.797 54.8927C105.221 54.7396 104.572 54.6594 103.843 54.6594C102.764 54.6594 101.611 54.9036 100.386 55.3885C99.1688 55.8771 98.0568 56.6354 97.0469 57.6635C96.0333 58.6844 95.1875 59.975 94.5094 61.5281C93.8386 63.0739 93.5031 64.9078 93.5031 67.026C93.5031 67.6896 93.5688 68.3604 93.7073 69.0385C93.8422 69.7203 94.0865 70.3437 94.4365 70.9052C94.7865 71.4594 95.2568 71.9114 95.8511 72.2614C96.4417 72.6042 97.1708 72.7719 98.0386 72.7719C98.6693 72.7719 99.3948 72.5641 100.211 72.1448C101.028 71.7292 101.808 71.0875 102.559 70.2198C103.307 69.3448 103.981 68.2474 104.586 66.924C105.199 65.6042 105.626 64.0365 105.87 62.2281C105.946 61.7432 106.176 61.3349 106.555 61.0031C106.934 60.675 107.386 60.5073 107.911 60.5073C108.396 60.5073 108.819 60.6969 109.18 61.076C109.548 61.4552 109.753 61.8927 109.793 62.3885C109.829 63.0521 109.898 63.9854 109.997 65.1885C110.103 66.3844 110.336 67.5766 110.697 68.7614C111.065 69.9391 111.616 70.9635 112.345 71.8385C113.081 72.7062 114.095 73.1364 115.378 73.1364C116.213 73.1364 117.041 72.9141 117.857 72.4656C118.674 72.0099 119.476 71.4083 120.264 70.6573C121.051 69.9099 121.798 69.0604 122.509 68.1052C123.217 67.1427 123.869 66.1766 124.464 65.2031C125.054 64.2333 125.576 63.2927 126.024 62.3885C126.48 61.4771 126.87 60.6896 127.191 60.026C127.355 59.6469 127.603 59.3552 127.934 59.151C128.273 58.9396 128.634 58.8302 129.014 58.8302C129.604 58.8302 130.082 59.049 130.443 59.4865C130.811 59.924 130.997 60.387 130.997 60.8719C130.997 61.1161 130.942 61.3604 130.836 61.601Z" fill="white"/>
<path d="M132.716 54.703C132.578 55.6473 132.403 56.5259 132.191 57.3426C131.987 58.1593 131.786 58.8739 131.593 59.4864C131.396 60.0989 131.232 60.5947 131.097 60.9739C130.959 61.353 130.871 61.5645 130.835 61.6009C130.485 62.3994 129.876 62.7968 129.012 62.7968C128.523 62.7968 128.071 62.6181 127.656 62.2572C127.236 61.889 127.029 61.4259 127.029 60.8718C127.029 60.6603 127.061 60.5035 127.131 60.4051C127.196 60.2994 127.298 60.0916 127.437 59.778C127.583 59.4572 127.758 58.9322 127.962 58.203C128.173 57.4739 128.436 56.3437 128.749 54.8051C128.155 54.8051 127.543 54.7905 126.912 54.7614C126.289 54.7249 125.709 54.6009 125.177 54.3968C124.633 54.1853 124.192 53.8535 123.849 53.4051C123.499 52.9494 123.324 52.3223 123.324 51.5239C123.324 50.9332 123.492 50.1312 123.82 49.1176C124.152 48.1077 124.593 47.116 125.147 46.1426C125.702 45.1728 126.321 44.3306 127.014 43.6197C127.714 42.9015 128.414 42.5405 129.114 42.5405C129.909 42.5405 130.561 42.8395 131.068 43.4301C131.571 44.0244 131.965 44.7499 132.249 45.603C132.53 46.4489 132.731 47.3457 132.847 48.2864C132.971 49.2197 133.037 50.0364 133.037 50.7364C133.62 50.7364 134.196 50.7291 134.772 50.7072C135.356 50.689 135.903 50.678 136.42 50.678C138.404 50.678 139.913 51.1155 140.956 51.9905C142.006 52.8582 142.531 54.2874 142.531 56.278C142.531 57.0765 142.476 57.9114 142.37 58.7864C142.272 59.6541 142.152 60.5473 142.006 61.4697C141.867 62.3957 141.747 63.3072 141.641 64.2114C141.543 65.1155 141.495 66.0051 141.495 66.8801C141.495 68.127 141.663 69.1624 142.006 69.9864C142.356 70.803 142.793 71.4556 143.318 71.9405C143.843 72.4291 144.401 72.7681 144.995 72.9614C145.586 73.1473 146.126 73.2384 146.614 73.2384C148.109 73.2384 149.52 72.7535 150.843 71.7801C152.163 70.8103 153.381 69.6364 154.489 68.2655C155.605 66.8874 156.607 65.4327 157.493 63.9051C158.386 62.3702 159.127 61.0285 159.71 59.8801C159.885 59.5593 160.126 59.3187 160.439 59.1509C160.76 58.9759 161.095 58.8884 161.445 58.8884C162.065 58.8884 162.554 59.089 162.904 59.4864C163.254 59.8874 163.429 60.3286 163.429 60.8134C163.429 61.1634 163.356 61.4806 163.21 61.7614C162.411 63.1832 161.482 64.791 160.424 66.5884C159.364 68.3785 158.153 70.0593 156.793 71.6343C155.43 73.202 153.906 74.5218 152.214 75.6009C150.53 76.6801 148.678 77.2197 146.658 77.2197C145.404 77.2197 144.215 76.9791 143.099 76.5051C141.991 76.0384 141.029 75.364 140.212 74.478C139.395 73.5848 138.743 72.4874 138.258 71.1822C137.769 69.8806 137.529 68.4077 137.529 66.7634C137.529 65.0244 137.696 63.2926 138.039 61.5718C138.389 59.8509 138.564 58.2103 138.564 56.6426C138.564 55.9827 138.411 55.4869 138.112 55.1551C137.82 54.827 137.168 54.6593 136.158 54.6593C135.669 54.6593 135.141 54.6593 134.568 54.6593C133.992 54.6593 133.376 54.6739 132.716 54.703ZM129.216 50.8384C129.216 50.5978 129.205 50.277 129.187 49.8759C129.176 49.4785 129.143 49.0884 129.085 48.7093C129.034 48.3228 128.968 47.991 128.881 47.7176C128.793 47.4369 128.695 47.2947 128.589 47.2947C128.48 47.2947 128.348 47.4259 128.195 47.6884C128.039 47.9437 127.874 48.2535 127.699 48.6218C127.524 48.9937 127.368 49.3874 127.233 49.803C127.094 50.2223 126.992 50.5687 126.927 50.8384H129.216Z" fill="white"/>
<path d="M179.932 60.9739C181.631 69.0166 184.103 73.0343 187.341 73.0343C188.595 73.0343 189.794 72.575 190.943 71.6489C192.088 70.7265 193.159 69.6 194.151 68.2656C195.143 66.9239 196.021 65.5057 196.791 64.0072C197.556 62.5125 198.183 61.2036 198.672 60.0843C199.022 59.2494 199.627 58.8302 200.495 58.8302C201.056 58.8302 201.53 59.0416 201.909 59.4572C202.296 59.8765 202.493 60.3286 202.493 60.8135C202.493 61.0979 202.438 61.3385 202.332 61.5427C202.088 62.1369 201.727 62.9281 201.253 63.9197C200.787 64.9114 200.21 65.976 199.532 67.1135C198.851 68.2437 198.092 69.3994 197.257 70.5843C196.419 71.7729 195.496 72.8374 194.487 73.7781C193.484 74.7114 192.416 75.4843 191.278 76.0968C190.148 76.6984 188.959 77.001 187.705 77.001C185.372 77.001 183.367 76.1916 181.697 74.5802C180.023 72.9578 178.58 70.2854 177.366 66.5593C175.692 70.1104 174.001 72.6843 172.291 74.2885C170.588 75.8927 168.747 76.6947 166.764 76.6947C165.721 76.6947 164.711 76.527 163.73 76.1989C162.757 75.8708 161.907 75.3203 161.178 74.551C160.449 73.7854 159.855 72.801 159.399 71.6052C158.951 70.402 158.728 68.9291 158.728 67.1864C158.728 64.7875 159.144 62.5781 159.982 60.5656C160.817 58.5458 161.896 56.8104 163.22 55.3593C164.54 53.9119 166.009 52.789 167.624 51.9906C169.246 51.1958 170.854 50.7947 172.451 50.7947C172.976 50.7947 173.428 50.9807 173.807 51.3489C174.194 51.7098 174.391 52.1656 174.391 52.7197C174.391 53.2083 174.23 53.6458 173.909 54.0322C173.596 54.4114 173.184 54.6375 172.67 54.7031C171.62 54.8489 170.501 55.1843 169.316 55.7093C168.138 56.227 167.055 56.9781 166.064 57.9697C165.072 58.9614 164.248 60.2265 163.599 61.7614C162.957 63.289 162.637 65.1156 162.637 67.2447C162.637 68.9875 162.99 70.3437 163.701 71.3135C164.419 72.2869 165.458 72.7718 166.822 72.7718C167.376 72.7718 167.963 72.626 168.587 72.3343C169.217 72.0354 169.888 71.452 170.599 70.5843C171.317 69.7093 172.101 68.477 172.947 66.8802C173.8 65.276 174.755 63.1687 175.805 60.551C175.211 57.4885 174.668 53.9557 174.172 49.9489C173.683 45.9458 173.443 41.4723 173.443 36.5322C173.443 34.3739 173.508 32.1244 173.647 29.7802C173.793 27.4286 174.019 25.1281 174.332 22.8822C174.653 20.6364 175.069 18.5036 175.587 16.4802C176.112 14.4604 176.746 12.6848 177.497 11.1572C178.244 9.62235 179.123 8.41193 180.137 7.52599C181.146 6.63276 182.295 6.18433 183.578 6.18433C184.723 6.18433 185.696 6.50151 186.495 7.13224C187.301 7.75568 187.957 8.62703 188.464 9.74266C188.967 10.851 189.342 12.1927 189.587 13.7677C189.827 15.3354 189.951 17.0562 189.951 18.9302C189.951 22.977 189.601 27.0166 188.901 31.0489C188.208 35.0848 187.348 38.9494 186.32 42.6427C185.299 46.3395 184.209 49.752 183.053 52.8802C181.905 56.0119 180.866 58.7098 179.932 60.9739ZM186.043 18.8864C186.043 18.0114 186.014 17.0708 185.955 16.0572C185.904 15.0473 185.784 14.0994 185.591 13.2135C185.394 12.3312 185.142 11.5911 184.832 10.9968C184.519 10.4062 184.103 10.1072 183.578 10.1072C182.71 10.1072 181.905 10.8765 181.157 12.4114C180.406 13.939 179.75 15.9479 179.189 18.4343C178.634 20.9244 178.19 23.7427 177.862 26.8927C177.53 30.0427 177.366 33.2218 177.366 36.4302C177.366 39.4927 177.486 42.5552 177.73 45.6177C177.971 48.6802 178.248 51.4145 178.562 53.8135C179.571 51.1411 180.53 48.3848 181.434 45.5447C182.339 42.7083 183.13 39.8098 183.812 36.8531C184.49 33.889 185.029 30.9031 185.43 27.8989C185.839 24.8875 186.043 21.8833 186.043 18.8864Z" fill="white"/>
<path d="M239.089 61.601C238.95 61.8853 238.666 62.4687 238.228 63.351C237.791 64.2369 237.229 65.2577 236.551 66.4135C235.881 67.5619 235.093 68.7614 234.189 70.0155C233.285 71.2624 232.271 72.4072 231.156 73.4572C230.036 74.4999 228.829 75.3603 227.539 76.0385C226.256 76.7166 224.903 77.0593 223.485 77.0593C221.461 77.0593 219.759 76.4176 218.381 75.1343C217.01 73.8437 216.007 72.2176 215.376 70.2635C214.199 72.2468 212.788 73.8218 211.147 74.9885C209.514 76.1551 207.881 76.7385 206.247 76.7385C204.953 76.7385 203.783 76.5051 202.733 76.0385C201.69 75.5718 200.808 74.9119 200.078 74.0551C199.349 73.202 198.784 72.1994 198.387 71.051C197.986 69.9062 197.789 68.652 197.789 67.2885C197.789 64.576 198.245 62.1843 199.16 60.1135C200.082 58.0426 201.26 56.3145 202.689 54.9218C204.118 53.5218 205.693 52.4791 207.414 51.7864C209.142 51.0864 210.804 50.7364 212.401 50.7364C213.481 50.7364 214.472 50.8895 215.376 51.1885C216.288 51.4801 217.068 51.801 217.71 52.151C218.351 52.501 218.847 52.8218 219.197 53.1135C219.547 53.4051 219.737 53.5728 219.766 53.6093C220.152 54.0687 220.349 54.539 220.349 55.0239C220.349 55.5416 220.152 56.001 219.766 56.4093C219.387 56.8103 218.935 57.0072 218.41 57.0072C217.856 57.0072 217.382 56.814 216.995 56.4239C216.926 56.3583 216.769 56.2306 216.528 56.0447C216.284 55.8515 215.952 55.651 215.537 55.4468C215.117 55.2353 214.622 55.0494 214.049 54.8926C213.473 54.7395 212.824 54.6593 212.095 54.6593C211.016 54.6593 209.864 54.9036 208.639 55.3885C207.421 55.877 206.309 56.6353 205.299 57.6635C204.286 58.6843 203.44 59.9749 202.762 61.528C202.091 63.0739 201.756 64.9077 201.756 67.026C201.756 67.6895 201.821 68.3603 201.96 69.0385C202.095 69.7202 202.339 70.3437 202.689 70.9051C203.039 71.4593 203.509 71.9114 204.103 72.2614C204.694 72.6041 205.423 72.7718 206.291 72.7718C206.922 72.7718 207.647 72.564 208.464 72.1447C209.281 71.7291 210.061 71.0874 210.812 70.2197C211.559 69.3447 212.234 68.2473 212.839 66.9239C213.451 65.6041 213.878 64.0364 214.122 62.228C214.199 61.7432 214.428 61.3348 214.808 61.003C215.187 60.6749 215.639 60.5072 216.164 60.5072C216.649 60.5072 217.072 60.6968 217.433 61.076C217.801 61.4551 218.005 61.8926 218.045 62.3885C218.082 63.052 218.151 63.9853 218.249 65.1885C218.355 66.3843 218.588 67.5765 218.949 68.7614C219.317 69.939 219.868 70.9635 220.597 71.8385C221.334 72.7062 222.347 73.1364 223.631 73.1364C224.465 73.1364 225.293 72.914 226.11 72.4655C226.926 72.0098 227.728 71.4083 228.516 70.6572C229.303 69.9098 230.051 69.0603 230.762 68.1051C231.469 67.1426 232.122 66.1765 232.716 65.203C233.307 64.2333 233.828 63.2926 234.276 62.3885C234.732 61.477 235.122 60.6895 235.443 60.026C235.607 59.6468 235.855 59.3551 236.187 59.151C236.526 58.9395 236.887 58.8301 237.266 58.8301C237.857 58.8301 238.334 59.0489 238.695 59.4864C239.063 59.9239 239.249 60.3869 239.249 60.8718C239.249 61.1161 239.195 61.3603 239.089 61.601ZM208.274 42.701L216.631 34.753C216.981 34.4431 217.382 34.2864 217.841 34.2864C218.286 34.2864 218.687 34.4614 219.037 34.8114C219.387 35.1614 219.562 35.5806 219.562 36.0655C219.562 36.5541 219.387 36.9515 219.037 37.2614L210.681 45.1947C210.301 45.5155 209.9 45.676 209.485 45.676C208.996 45.676 208.588 45.501 208.26 45.151C207.928 44.801 207.764 44.3999 207.764 43.9405C207.764 43.4556 207.932 43.0437 208.274 42.701Z" fill="white"/>
<path d="M262.275 61.601C262.275 64.8021 261.699 67.5328 260.554 69.7969C259.405 72.0646 257.995 73.7891 256.325 74.974H256.529C258.589 74.974 260.459 74.5146 262.143 73.5885C263.835 72.6662 265.355 71.4849 266.708 70.0448C268.068 68.5974 269.289 66.9823 270.368 65.2031C271.448 63.424 272.403 61.6995 273.241 60.026C273.416 59.6469 273.668 59.3552 274 59.151C274.328 58.9396 274.689 58.8302 275.079 58.8302C275.662 58.8302 276.129 59.0417 276.479 59.4573C276.829 59.8766 277.004 60.3287 277.004 60.8135C277.004 61.0979 276.949 61.3604 276.843 61.601C275.939 63.6245 274.86 65.6552 273.606 67.6969C272.352 69.7313 270.886 71.5615 269.216 73.1948C267.554 74.8281 265.676 76.1552 263.587 77.176C261.495 78.2042 259.176 78.7219 256.631 78.7219C254.793 78.7219 253.003 78.4339 251.264 77.8615C249.522 77.2854 247.987 76.3922 246.656 75.1781C246.167 74.799 245.752 74.3906 245.402 73.9531C245.059 73.5156 244.782 73.1073 244.571 72.7281C244.501 72.6516 244.468 72.5787 244.468 72.5094C244.264 72.1995 244.162 71.8677 244.162 71.5177C244.162 71.0729 244.315 70.6537 244.629 70.2635C244.658 70.1979 244.691 70.1578 244.731 70.1469C244.767 70.1287 244.804 70.0995 244.833 70.0594C245.183 69.7495 245.566 69.5745 245.985 69.5344H246.146C246.321 69.5344 246.441 69.5563 246.51 69.5927C246.539 69.5927 246.561 69.6037 246.583 69.6219C246.601 69.6328 246.627 69.6365 246.656 69.6365C246.762 69.6365 246.882 69.6766 247.021 69.7531C247.057 69.7823 247.097 69.7969 247.137 69.7969C247.447 70.012 247.706 70.2745 247.91 70.5844C248.151 71.0037 248.435 71.3865 248.756 71.7365C249.026 72.0099 249.354 72.2615 249.733 72.4948C250.12 72.7208 250.557 72.8302 251.046 72.8302C251.921 72.8302 252.788 72.5677 253.656 72.0427C254.531 71.5177 255.311 70.7703 256.004 69.7969C256.704 68.8271 257.273 67.6458 257.71 66.2531C258.148 64.8531 258.366 63.3037 258.366 61.601C258.366 60.3469 258.235 59.2787 257.973 58.3927C257.71 57.4995 257.378 56.774 256.981 56.2198C256.58 55.6656 256.153 55.2573 255.698 54.9948C255.238 54.7323 254.801 54.601 254.385 54.601C253.452 54.601 252.504 55.0932 251.541 56.074C250.586 57.0474 249.638 58.2833 248.698 59.7781C247.753 61.2766 246.82 62.9281 245.898 64.7365C244.983 66.5448 244.053 68.3021 243.112 70.001C243.043 75.6521 242.945 81.0297 242.821 86.1448C242.704 91.2563 242.492 96.0068 242.193 100.393C241.902 104.786 241.493 108.756 240.968 112.307C240.443 115.855 239.729 118.892 238.825 121.422C237.921 123.948 236.805 125.888 235.485 127.241C234.162 128.601 232.547 129.282 230.629 129.282C230.038 129.282 229.36 129.158 228.602 128.918C227.836 128.673 227.122 128.178 226.458 127.43C225.798 126.679 225.24 125.607 224.781 124.207C224.325 122.815 224.096 120.955 224.096 118.622C224.096 115.665 224.467 112.238 225.204 108.341C225.933 104.44 226.968 100.305 228.31 95.9302C229.652 91.5625 231.249 87.0818 233.093 82.4844C234.931 77.8943 236.962 73.4245 239.189 69.0677C239.189 67.8537 239.197 66.6542 239.218 65.4656C239.237 64.2807 239.248 63.1323 239.248 62.024C238.788 62.5417 238.249 62.7969 237.629 62.7969C237.035 62.7969 236.564 62.5891 236.214 62.1698C235.864 61.7542 235.689 61.3021 235.689 60.8135C235.689 60.5729 235.74 60.3104 235.85 60.026C236.685 58.112 237.326 56.2927 237.775 54.5719C238.23 52.851 238.57 51.3417 238.796 50.0365C239.029 48.724 239.16 47.6885 239.189 46.9302C239.226 46.1646 239.248 45.7599 239.248 45.7198C239.248 45.2057 239.437 44.7573 239.816 44.3781C240.203 43.9917 240.677 43.7948 241.231 43.7948C241.756 43.7948 242.208 43.9807 242.587 44.349C242.966 44.7099 243.156 45.1656 243.156 45.7198V61.7615C243.962 60.4016 244.764 59.0599 245.562 57.7365C246.368 56.4167 247.214 55.2354 248.1 54.1927C248.982 53.1427 249.941 52.2969 250.973 51.6552C252.001 51.0063 253.138 50.6781 254.385 50.6781C255.57 50.6781 256.649 50.9625 257.623 51.524C258.603 52.0781 259.438 52.8474 260.131 53.8281C260.831 54.8016 261.36 55.9573 261.721 57.299C262.089 58.6333 262.275 60.0662 262.275 61.601ZM239.087 78.3573C237.385 82.1854 235.842 86.0318 234.464 89.8927C233.093 93.7609 231.934 97.4906 230.979 101.078C230.016 104.666 229.273 108.023 228.748 111.155C228.223 114.294 227.96 117.047 227.96 119.409C227.96 120 228 120.642 228.077 121.334C228.146 122.034 228.288 122.68 228.5 123.274C228.704 123.865 228.996 124.36 229.375 124.761C229.754 125.159 230.261 125.359 230.891 125.359C232.04 125.359 233.032 124.634 233.866 123.186C234.701 121.746 235.405 119.796 235.981 117.339C236.553 114.889 237.031 112.067 237.41 108.88C237.797 105.701 238.103 102.369 238.329 98.8906C238.562 95.4089 238.726 91.8979 238.825 88.3615C238.93 84.8323 239.018 81.4964 239.087 78.3573Z" fill="white"/>
<path d="M281.757 35.176C281.757 36.4995 281.294 37.6224 280.372 38.5448C279.446 39.4708 278.323 39.9302 277.003 39.9302C275.679 39.9302 274.556 39.4708 273.634 38.5448C272.708 37.6224 272.249 36.4995 272.249 35.176C272.249 34.5161 272.369 33.9 272.613 33.324C272.854 32.7516 273.197 32.2448 273.634 31.8073C274.072 31.3698 274.575 31.0307 275.151 30.7865C275.723 30.5458 276.339 30.4219 277.003 30.4219C277.663 30.4219 278.279 30.5458 278.855 30.7865C279.427 31.0307 279.934 31.3698 280.372 31.8073C280.809 32.2448 281.148 32.7516 281.392 33.324C281.633 33.9 281.757 34.5161 281.757 35.176ZM273.299 65.7719C273.299 60.7661 273.609 55.775 274.232 50.7948C274.298 50.299 274.513 49.8724 274.874 49.5115C275.242 49.1432 275.723 48.9573 276.317 48.9573C276.842 48.9573 277.28 49.1615 277.63 49.5698C277.98 49.9708 278.155 50.4266 278.155 50.9406C278.155 51.1557 278.111 51.7865 278.024 52.8365C277.936 53.8792 277.827 55.1224 277.703 56.5698C277.586 58.0099 277.484 59.5411 277.397 61.1635C277.309 62.7786 277.265 64.2661 277.265 65.626C277.265 67.4635 277.444 68.951 277.805 70.0885C278.173 71.2188 278.643 72.0974 279.219 72.7281C279.792 73.3516 280.401 73.7708 281.042 73.9823C281.691 74.1865 282.315 74.2885 282.909 74.2885C283.879 74.2885 284.885 73.9458 285.928 73.2531C286.978 72.5531 288.046 71.576 289.136 70.3219C290.234 69.0677 291.342 67.562 292.461 65.801C293.577 64.0438 294.678 62.0823 295.757 59.924C295.921 59.574 296.158 59.3078 296.472 59.1219C296.792 58.9286 297.142 58.8302 297.522 58.8302C298.083 58.8302 298.546 59.0417 298.907 59.4573C299.275 59.8766 299.461 60.3286 299.461 60.8135C299.461 61.1635 299.388 61.4625 299.242 61.7031C298.823 62.5016 298.302 63.4786 297.682 64.6344C297.059 65.7828 296.344 66.9641 295.538 68.1781C294.74 69.3958 293.861 70.6063 292.899 71.8094C291.943 73.0161 290.93 74.0953 289.851 75.0469C288.772 76.0021 287.638 76.7714 286.453 77.3656C285.264 77.9562 284.065 78.2552 282.851 78.2552C281.283 78.2552 279.909 77.9234 278.724 77.2635C277.535 76.6 276.536 75.7177 275.719 74.6094C274.903 73.4938 274.294 72.174 273.897 70.6573C273.496 69.1406 273.299 67.5146 273.299 65.7719ZM278.826 35.176C278.826 34.6911 278.64 34.2682 278.272 33.9073C277.911 33.5391 277.488 33.3531 277.003 33.3531C276.514 33.3531 276.099 33.5391 275.749 33.9073C275.399 34.2682 275.224 34.6911 275.224 35.176C275.224 35.6646 275.399 36.0802 275.749 36.4302C276.099 36.7802 276.514 36.9552 277.003 36.9552C277.488 36.9552 277.911 36.7802 278.272 36.4302C278.64 36.0802 278.826 35.6646 278.826 35.176Z" fill="white"/>
<path d="M319.772 70.4239C318.897 70.4239 318.128 70.3583 317.468 70.2197C316.95 71.2624 316.323 72.2286 315.587 73.1218C314.858 74.0077 314.012 74.7807 313.049 75.4406C312.094 76.1041 311.026 76.6218 309.841 77.001C308.663 77.3874 307.38 77.5843 305.991 77.5843C304.347 77.5843 302.845 77.2963 301.485 76.7239C300.132 76.1515 298.951 75.3494 297.941 74.3176C296.927 73.2895 296.147 72.0536 295.593 70.6135C295.039 69.1661 294.762 67.5728 294.762 65.8301C294.762 63.6062 295.159 61.6666 295.958 60.0114C296.752 58.3598 297.671 56.9853 298.714 55.8843C299.764 54.7869 300.807 53.9702 301.849 53.4343C302.899 52.8911 303.687 52.6176 304.212 52.6176C304.802 52.6176 305.247 52.7744 305.539 53.0843C305.838 53.3978 305.991 53.8135 305.991 54.3385C305.991 54.9327 305.805 55.3812 305.437 55.6801C305.065 55.9718 304.605 56.2598 304.051 56.5406C303.497 56.814 302.903 57.2041 302.272 57.7072C301.649 58.214 301.065 58.852 300.522 59.6176C299.986 60.3869 299.545 61.2911 299.195 62.3301C298.845 63.3728 298.67 64.5395 298.67 65.8301C298.67 66.9786 298.845 68.0468 299.195 69.0385C299.545 70.0301 300.048 70.8869 300.712 71.6051C301.372 72.3161 302.155 72.8702 303.06 73.2676C303.964 73.6687 304.974 73.8656 306.093 73.8656C308.076 73.8656 309.717 73.4098 311.022 72.4947C312.324 71.5723 313.326 70.3947 314.026 68.9656C311.974 67.8864 310.286 66.3551 308.966 64.3718C307.642 62.3885 306.983 60.1572 306.983 57.6781C306.983 55.6947 307.457 54.076 308.412 52.8218C309.374 51.5676 310.636 50.9406 312.203 50.9406C313.137 50.9406 314.019 51.1702 314.858 51.626C315.692 52.0744 316.433 52.789 317.074 53.7697C317.723 54.7432 318.241 55.9973 318.62 57.5322C319.007 59.0598 319.203 60.8864 319.203 63.0156C319.203 64.1239 319.061 65.2906 318.78 66.5156C318.985 66.5447 319.189 66.5593 319.393 66.5593C319.604 66.5593 319.834 66.5593 320.078 66.5593C321.263 66.5593 322.328 66.4244 323.272 66.151C324.213 65.8702 325.066 65.451 325.824 64.8968C326.59 64.3353 327.275 63.6208 327.88 62.7531C328.493 61.8781 329.08 60.8682 329.645 59.7197C329.751 59.5083 329.973 59.3077 330.316 59.1218C330.666 58.9286 331.016 58.8301 331.366 58.8301C331.811 58.8301 332.234 59.0161 332.635 59.3843C333.043 59.7452 333.247 60.2228 333.247 60.8135C333.247 61.0978 333.174 61.4041 333.028 61.7322C332.89 62.064 332.755 62.3702 332.62 62.651C332.026 63.6937 331.337 64.6926 330.549 65.6551C329.769 66.6103 328.847 67.4452 327.778 68.1635C326.717 68.8744 325.525 69.4395 324.205 69.8551C322.882 70.2744 321.405 70.464 319.772 70.4239ZM310.847 57.2697C310.847 57.9333 310.927 58.626 311.095 59.3551C311.27 60.0843 311.54 60.8098 311.912 61.5281C312.28 62.239 312.732 62.9135 313.268 63.5551C313.811 64.1968 314.449 64.7473 315.178 65.2031C315.284 64.4739 315.339 63.7593 315.339 63.0593C315.339 62.1187 315.266 61.1598 315.12 60.1864C314.982 59.2166 314.785 58.3197 314.522 57.5031C314.26 56.6864 313.932 56.0265 313.545 55.5197C313.166 55.0166 312.717 54.7614 312.203 54.7614C311.988 54.7614 311.708 54.9182 311.358 55.2281C311.015 55.5416 310.847 56.2197 310.847 57.2697Z" fill="white"/>
</g>
<defs>
<clipPath id="clip0_4_2761">
<rect width="338" height="135" fill="white"/>
</clipPath>
</defs>
</svg>
