<svg width="50" height="50" viewBox="0 0 50 50" fill="none" xmlns="http://www.w3.org/2000/svg">
<g clip-path="url(#clip0_11_95)">
<path d="M25.0291 0.198425C11.3733 0.198425 0.256673 11.3055 0.251713 24.9613C0.249233 29.3264 1.39254 33.5877 3.5602 37.3427L0.198414 49.8016L13.1756 46.7353C16.7942 48.7095 20.8677 49.7459 25.0145 49.7483H25.0242C38.6775 49.7483 49.7893 38.6388 49.7968 24.9855C49.8017 18.366 47.2276 12.1422 42.5501 7.45969C37.8725 2.77963 31.6561 0.200905 25.0291 0.198425ZM25.0242 5.15874C30.3219 5.16122 35.3004 7.2267 39.0429 10.9668C42.7855 14.7118 44.8414 19.688 44.8365 24.9807C44.8315 35.9033 35.947 44.788 25.0194 44.788C21.7134 44.7855 18.4385 43.9554 15.5541 42.3805L13.8829 41.4698L12.0373 41.9058L7.15449 43.0587L8.34614 38.6312L8.88383 36.6451L7.8569 34.8625C6.12575 31.8665 5.20955 28.4409 5.21203 24.9613C5.21699 14.0436 14.1041 5.15874 25.0242 5.15874ZM16.2613 13.5293C15.8471 13.5293 15.1774 13.6843 14.6095 14.3043C14.0415 14.9219 12.4393 16.4176 12.4393 19.4633C12.4393 22.5089 14.6579 25.4529 14.9679 25.8671C15.2755 26.2788 19.2504 32.7263 25.5425 35.2065C30.7707 37.2675 31.8326 36.8607 32.9685 36.7566C34.1044 36.6549 36.633 35.2622 37.1489 33.8162C37.6648 32.3703 37.666 31.1265 37.5122 30.871C37.3584 30.6131 36.9454 30.4593 36.3254 30.1493C35.7078 29.8392 32.6645 28.3448 32.0965 28.139C31.5286 27.9331 31.1131 27.8289 30.7014 28.449C30.2897 29.069 29.1065 30.4593 28.7444 30.871C28.3823 31.2852 28.0227 31.3409 27.4026 31.0309C26.7826 30.7184 24.789 30.063 22.4229 27.9549C20.5826 26.3155 19.3409 24.2928 18.9788 23.6727C18.6192 23.0552 18.9449 22.7159 19.2549 22.4084C19.5327 22.1306 19.8701 21.6854 20.1801 21.3233C20.4877 20.9612 20.5943 20.7032 20.8002 20.2915C21.006 19.8798 20.9007 19.5165 20.7469 19.2065C20.5931 18.8964 19.3889 15.8395 18.8383 14.6143C18.3745 13.585 17.8847 13.5611 17.4432 13.5438C17.0836 13.5289 16.673 13.5293 16.2613 13.5293Z" fill="white"/>
</g>
<defs>
<clipPath id="clip0_11_95">
<rect width="50" height="50" fill="white"/>
</clipPath>
</defs>
</svg>
