<svg width="200" height="32" viewBox="0 0 200 32" fill="none" xmlns="http://www.w3.org/2000/svg">
<g clip-path="url(#clip0_4_367)">
<path d="M140.964 9.60974C140.927 9.79434 140.842 9.93674 140.71 10.0422C140.576 10.1477 140.431 10.2005 140.278 10.2005C140.038 10.2005 139.845 10.1266 139.698 9.97894C139.555 9.82598 139.487 9.6493 139.487 9.45151C139.487 9.25636 139.503 9.06122 139.54 8.87134C139.582 8.68147 139.603 8.4916 139.603 8.30172C139.603 7.34708 139.302 6.48474 138.706 5.71734C138.116 4.95257 137.274 4.30911 136.185 3.78696C135.101 3.26744 133.78 2.86923 132.219 2.59497C130.663 2.31544 128.93 2.17303 127.018 2.17303C125.555 2.17303 124.081 2.27324 122.599 2.46839C121.114 2.65826 119.69 2.9378 118.326 3.30172C116.96 3.66037 115.684 4.11396 114.497 4.66248C113.316 5.20573 112.285 5.83864 111.407 6.56122C110.526 7.27852 109.838 8.07757 109.339 8.95573C108.838 9.82862 108.59 10.7859 108.59 11.8249C108.59 12.6345 108.762 13.3439 109.107 13.9557C109.458 14.5675 109.935 15.1029 110.542 15.5591C111.153 16.0101 111.871 16.3977 112.694 16.7194C113.516 17.0438 114.408 17.3154 115.373 17.5317C116.335 17.7506 117.338 17.9299 118.379 18.0697C119.418 18.2041 120.468 18.3202 121.523 18.4178L124.571 18.6709C126.09 18.8054 127.446 18.9452 128.643 19.0929C129.845 19.2353 130.9 19.4172 131.807 19.6414C133.326 20.0211 134.447 20.5697 135.172 21.287C135.895 21.999 136.259 22.9431 136.259 24.1245C136.259 25.2796 135.943 26.2922 135.31 27.1625C134.677 28.0275 133.812 28.7606 132.715 29.3566C131.623 29.9473 130.347 30.393 128.886 30.6962C127.422 30.9969 125.85 31.1498 124.17 31.1498C122.356 31.1498 120.758 31.0259 119.381 30.7806C118.002 30.5406 116.844 30.2743 115.911 29.9789C114.983 29.6783 114.276 29.404 113.791 29.1562C113.305 28.903 113.042 28.7632 112.999 28.7342C112.759 28.6076 112.641 28.3967 112.641 28.1013C112.641 27.8771 112.717 27.6978 112.873 27.5633C113.034 27.4236 113.21 27.3524 113.4 27.3524C113.54 27.3524 113.669 27.3919 113.791 27.4684C113.804 27.4684 114.033 27.5844 114.476 27.8165C114.919 28.0486 115.576 28.307 116.449 28.5865C117.327 28.8608 118.411 29.1113 119.698 29.3355C120.99 29.5544 122.496 29.6625 124.213 29.6625C125.913 29.6625 127.414 29.5254 128.717 29.2511C130.025 28.9768 131.122 28.5944 132.008 28.1013C132.899 27.6029 133.574 27.0227 134.033 26.3608C134.489 25.6936 134.719 24.9684 134.719 24.1878C134.719 23.7237 134.634 23.3281 134.466 22.9958C134.302 22.6583 134.075 22.3682 133.78 22.1203C133.49 21.875 133.147 21.6667 132.746 21.4979C132.345 21.3291 131.908 21.1867 131.438 21.0654C130.932 20.9336 130.389 20.8202 129.814 20.7279C129.244 20.6382 128.656 20.5591 128.052 20.4958C127.446 20.4272 126.834 20.3666 126.217 20.3165C125.605 20.2611 125.004 20.2084 124.413 20.1583L121.364 19.8946C118.965 19.6994 116.873 19.3935 115.088 18.9768C113.3 18.5628 111.813 18.0275 110.626 17.3735C109.437 16.7194 108.548 15.9389 107.957 15.0317C107.367 14.1245 107.071 13.0644 107.071 11.846C107.071 10.6092 107.348 9.47261 107.905 8.43885C108.466 7.39983 109.234 6.46364 110.204 5.63295C111.175 4.80489 112.306 4.08231 113.601 3.4705C114.901 2.85869 116.291 2.34972 117.767 1.94096C119.244 1.53485 120.774 1.22894 122.356 1.02324C123.938 0.812272 125.492 0.706787 127.018 0.706787C128.93 0.706787 130.594 0.822821 132.008 1.05489C133.427 1.28696 134.64 1.58759 135.647 1.95151C136.66 2.31016 137.488 2.72155 138.137 3.18569C138.783 3.64455 139.302 4.09814 139.698 4.54645C140.631 5.6435 141.101 6.8935 141.101 8.29117C141.101 8.75004 141.053 9.1878 140.964 9.60974Z" fill="black"/>
<path d="M152.956 24.8841C152.914 25.5671 152.819 26.2554 152.671 26.9516C152.529 27.6425 152.305 28.2649 151.996 28.8187C151.685 29.3751 151.279 29.8287 150.772 30.1795C150.271 30.5223 149.654 30.6963 148.916 30.6963C148.457 30.6963 148.054 30.6251 147.703 30.4854C147.349 30.3535 147.044 30.1689 146.785 29.9368C146.532 29.7048 146.316 29.4411 146.142 29.1457C145.973 28.8503 145.828 28.5392 145.709 28.2069C145.25 28.9664 144.71 29.5571 144.085 29.979C143.457 30.3931 142.835 30.6014 142.218 30.6014C141.711 30.6014 141.258 30.5091 140.857 30.3271C140.456 30.1373 140.11 29.8736 139.823 29.536C139.541 29.1984 139.319 28.795 139.158 28.3229C139.003 27.8456 138.926 27.3103 138.926 26.7195C138.926 25.728 139.013 24.8736 139.19 24.1563C139.372 23.439 139.573 22.8535 139.791 22.3946C140.008 21.9305 140.208 21.5824 140.393 21.3503C140.575 21.1183 140.667 21.0022 140.667 21.0022C140.735 20.9258 140.82 20.8704 140.92 20.8335C141.018 20.7913 141.121 20.7702 141.226 20.7702C141.437 20.7702 141.608 20.8493 141.743 21.0022C141.883 21.1499 141.954 21.324 141.954 21.5191C141.954 21.6668 141.901 21.825 141.796 21.9938C141.746 22.0729 141.643 22.2232 141.49 22.4474C141.342 22.6742 141.186 22.9801 141.026 23.3651C140.87 23.7449 140.73 24.2143 140.604 24.7681C140.477 25.3166 140.414 25.968 140.414 26.7195C140.414 27.5001 140.572 28.0909 140.888 28.4917C141.205 28.8925 141.648 29.093 142.218 29.093C142.492 29.093 142.792 29.0191 143.125 28.8714C143.454 28.7185 143.763 28.4811 144.053 28.1647C144.34 27.8482 144.591 27.4474 144.802 26.9622C145.013 26.4717 145.145 25.8941 145.203 25.2322L145.456 21.8356C145.469 21.6404 145.551 21.4743 145.699 21.3398C145.852 21.2079 146.028 21.1394 146.226 21.1394C146.45 21.1394 146.629 21.2238 146.764 21.3925C146.896 21.556 146.964 21.7406 146.964 21.9516L146.743 25.2217C146.701 25.9179 146.722 26.5165 146.806 27.0149C146.896 27.516 147.041 27.9274 147.239 28.2491C147.434 28.5734 147.676 28.8134 147.967 28.9664C148.254 29.1141 148.578 29.1879 148.937 29.1879C149.414 29.1879 149.815 29.0508 150.14 28.7765C150.469 28.5022 150.733 28.1304 150.931 27.6584C151.134 27.181 151.279 26.6299 151.363 26.0022C151.448 25.3772 151.49 24.7127 151.49 24.0086C151.49 23.1805 151.442 22.4896 151.353 21.9411C151.26 21.3873 151.215 21.0128 151.215 20.8229C151.215 20.6278 151.284 20.4537 151.426 20.306C151.574 20.1531 151.753 20.074 151.964 20.074C152.146 20.074 152.305 20.132 152.439 20.2428C152.571 20.3561 152.655 20.5038 152.692 20.6858C152.705 20.7438 152.745 20.8968 152.808 21.1499C152.877 21.3978 152.972 21.6958 153.093 22.0465C153.212 22.392 153.367 22.7612 153.557 23.1541C153.747 23.5418 153.974 23.9005 154.243 24.2301C154.517 24.5624 154.826 24.8366 155.171 25.0529C155.522 25.2718 155.923 25.3799 156.374 25.3799C156.627 25.3799 156.84 25.3324 157.017 25.2322C157.191 25.1267 157.339 25.0107 157.46 24.8841C157.579 24.7522 157.666 24.6257 157.724 24.5044C157.787 24.3857 157.824 24.3118 157.84 24.2828C157.903 24.1431 157.998 24.0297 158.125 23.9453C158.251 23.8556 158.383 23.8082 158.526 23.8082C158.75 23.8082 158.932 23.8925 159.074 24.0613C159.214 24.2248 159.285 24.3989 159.285 24.5887C159.285 24.7443 159.214 24.9553 159.074 25.2217C158.932 25.4827 158.737 25.7359 158.483 25.9811C158.235 26.2211 157.93 26.4321 157.566 26.6141C157.207 26.7907 156.809 26.8778 156.374 26.8778C155.994 26.8778 155.638 26.8224 155.308 26.709C154.976 26.5982 154.667 26.4506 154.38 26.266C154.098 26.084 153.837 25.873 153.599 25.633C153.367 25.3957 153.151 25.1452 152.956 24.8841Z" fill="black"/>
<path d="M160.228 28.2068C160.507 28.5866 160.863 28.8925 161.293 29.1246C161.728 29.3566 162.264 29.4727 162.897 29.4727C163.543 29.4727 164.131 29.3197 164.658 29.0085C165.186 28.7 165.666 28.2965 166.103 27.7955C166.538 27.2891 166.929 26.7274 167.274 26.1077C167.617 25.4906 167.928 24.8709 168.203 24.2512C168.266 24.1035 168.355 23.9953 168.477 23.9241C168.595 23.8477 168.73 23.8081 168.878 23.8081C169.102 23.8081 169.281 23.8899 169.416 24.0507C169.555 24.2063 169.627 24.3777 169.627 24.5676C169.627 24.6309 169.619 24.6889 169.605 24.7364C169.59 24.7786 169.569 24.8287 169.542 24.8841C168.635 26.8883 167.643 28.402 166.567 29.4199C165.492 30.4326 164.273 30.9495 162.918 30.9706C162.053 30.9706 161.304 30.8018 160.671 30.4642C160.038 30.1346 159.513 29.7021 159.099 29.1668C158.69 28.6341 158.387 28.0275 158.192 27.3524C157.994 26.6773 157.897 26.0075 157.897 25.3376C157.897 24.6625 157.976 24.0455 158.139 23.4811C158.308 22.9115 158.545 22.4157 158.857 21.9938C159.165 21.5718 159.534 21.2422 159.964 21.0022C160.391 20.7649 160.863 20.6436 161.378 20.6436C161.678 20.6436 161.979 20.7068 162.274 20.8334C162.575 20.96 162.844 21.1393 163.076 21.3714C163.313 21.6035 163.503 21.8856 163.646 22.2153C163.793 22.5397 163.867 22.9115 163.867 23.3334C163.867 23.8767 163.775 24.3856 163.593 24.863C163.408 25.335 163.155 25.778 162.833 26.1921C162.509 26.6008 162.121 26.9779 161.673 27.3208C161.222 27.6583 160.739 27.9537 160.228 28.2068ZM159.637 26.9199C160.043 26.7459 160.418 26.527 160.755 26.2659C161.093 25.9996 161.378 25.7068 161.61 25.3904C161.847 25.0739 162.034 24.7443 162.169 24.3988C162.301 24.0481 162.369 23.6921 162.369 23.3334C162.369 22.9405 162.269 22.6425 162.074 22.4368C161.876 22.2337 161.644 22.1309 161.378 22.1309C161.019 22.1309 160.713 22.2311 160.46 22.4263C160.212 22.624 160.009 22.8798 159.848 23.1963C159.692 23.5128 159.579 23.8688 159.511 24.2617C159.439 24.6494 159.405 25.0317 159.405 25.4115C159.405 25.6515 159.426 25.9046 159.468 26.171C159.516 26.4321 159.574 26.6826 159.637 26.9199Z" fill="black"/>
<path d="M170.572 28.2068C170.852 28.5866 171.208 28.8925 171.637 29.1246C172.073 29.3566 172.608 29.4727 173.241 29.4727C173.887 29.4727 174.475 29.3197 175.002 29.0085C175.53 28.7 176.01 28.2965 176.448 27.7955C176.883 27.2891 177.273 26.7274 177.618 26.1077C177.961 25.4906 178.272 24.8709 178.547 24.2512C178.61 24.1035 178.7 23.9953 178.821 23.9241C178.94 23.8477 179.074 23.8081 179.222 23.8081C179.446 23.8081 179.625 23.8899 179.76 24.0507C179.9 24.2063 179.971 24.3777 179.971 24.5676C179.971 24.6309 179.963 24.6889 179.95 24.7364C179.934 24.7786 179.913 24.8287 179.886 24.8841C178.979 26.8883 177.988 28.402 176.912 29.4199C175.836 30.4326 174.617 30.9495 173.262 30.9706C172.397 30.9706 171.648 30.8018 171.015 30.4642C170.382 30.1346 169.857 29.7021 169.443 29.1668C169.035 28.6341 168.731 28.0275 168.536 27.3524C168.338 26.6773 168.241 26.0075 168.241 25.3376C168.241 24.6625 168.32 24.0455 168.483 23.4811C168.652 22.9115 168.889 22.4157 169.201 21.9938C169.509 21.5718 169.878 21.2422 170.308 21.0022C170.735 20.7649 171.208 20.6436 171.722 20.6436C172.022 20.6436 172.323 20.7068 172.618 20.8334C172.919 20.96 173.188 21.1393 173.42 21.3714C173.657 21.6035 173.847 21.8856 173.99 22.2153C174.137 22.5397 174.211 22.9115 174.211 23.3334C174.211 23.8767 174.119 24.3856 173.937 24.863C173.752 25.335 173.499 25.778 173.177 26.1921C172.853 26.6008 172.465 26.9779 172.017 27.3208C171.566 27.6583 171.084 27.9537 170.572 28.2068ZM169.981 26.9199C170.387 26.7459 170.762 26.527 171.099 26.2659C171.437 25.9996 171.722 25.7068 171.954 25.3904C172.191 25.0739 172.378 24.7443 172.513 24.3988C172.645 24.0481 172.713 23.6921 172.713 23.3334C172.713 22.9405 172.613 22.6425 172.418 22.4368C172.22 22.2337 171.988 22.1309 171.722 22.1309C171.363 22.1309 171.057 22.2311 170.804 22.4263C170.556 22.624 170.353 22.8798 170.192 23.1963C170.037 23.5128 169.923 23.8688 169.855 24.2617C169.783 24.6494 169.749 25.0317 169.749 25.4115C169.749 25.6515 169.77 25.9046 169.812 26.171C169.86 26.4321 169.918 26.6826 169.981 26.9199Z" fill="black"/>
<path d="M194.566 10.5802C194.566 10.7912 194.492 10.96 194.344 11.0865C194.202 11.2131 194.028 11.2764 193.817 11.2764H183.785V11.4874C183.785 12.297 183.725 13.154 183.606 14.0612C183.485 14.9684 183.324 15.8756 183.121 16.7827C182.915 17.6846 182.683 18.5628 182.425 19.4199C182.171 20.2796 181.908 21.0707 181.633 21.7933C181.364 22.5185 181.098 23.1488 180.832 23.6815C180.571 24.2168 180.336 24.6177 180.125 24.884C180.299 25.4905 180.505 26.0523 180.737 26.5718C180.974 27.0939 181.243 27.5501 181.538 27.9431C181.839 28.3307 182.161 28.6366 182.498 28.8608C182.841 29.0797 183.21 29.1878 183.606 29.1878C184.07 29.1878 184.526 28.9953 184.977 28.6076C185.434 28.2226 185.855 27.7611 186.243 27.2258C186.636 26.6931 186.982 26.1498 187.277 25.6013C187.572 25.0528 187.786 24.615 187.92 24.2827C188.052 23.9663 188.284 23.8081 188.617 23.8081C188.841 23.8081 189.02 23.8898 189.155 24.0507C189.294 24.2063 189.365 24.3777 189.365 24.5676C189.365 24.6599 189.344 24.7521 189.302 24.8418C189.265 24.9341 189.17 25.1451 189.017 25.4747C188.87 25.807 188.672 26.1894 188.427 26.6245C188.179 27.0623 187.894 27.5185 187.572 27.9958C187.248 28.4758 186.887 28.9135 186.486 29.3144C186.085 29.71 185.652 30.0396 185.188 30.3059C184.729 30.5644 184.244 30.6962 183.733 30.6962C182.817 30.6962 181.997 30.4009 181.275 29.8102C180.55 29.2142 179.935 28.3808 179.429 27.3102C178.922 26.2421 178.535 24.9763 178.268 23.5127C178.007 22.0517 177.878 20.451 177.878 18.7131C177.878 18.278 177.881 17.769 177.889 17.1836C177.902 16.5929 177.931 15.9705 177.973 15.3165C178.015 14.6625 178.073 13.9927 178.152 13.3017C178.229 12.6055 178.334 11.9304 178.469 11.2764H171.37C171.159 11.2764 170.979 11.2131 170.832 11.0865C170.684 10.96 170.61 10.7912 170.61 10.5802C170.61 10.3692 170.684 10.2005 170.832 10.0739C170.979 9.9473 171.159 9.88401 171.37 9.88401H178.806C178.933 9.4146 179.083 8.98211 179.26 8.58654C179.442 8.18569 179.65 7.84287 179.882 7.55278C180.114 7.26533 180.37 7.04118 180.652 6.87768C180.932 6.7089 181.246 6.62451 181.591 6.62451C181.921 6.62451 182.206 6.7089 182.446 6.87768C182.691 7.04118 182.899 7.26533 183.068 7.55278C183.242 7.84287 183.379 8.18569 183.479 8.58654C183.577 8.98211 183.653 9.4146 183.711 9.88401H193.817C194.028 9.88401 194.202 9.9473 194.344 10.0739C194.492 10.2005 194.566 10.3692 194.566 10.5802ZM179.671 22.9009C180.064 22.0306 180.423 21.0918 180.747 20.0844C181.069 19.0797 181.349 18.0644 181.581 17.0359C181.813 16.0021 181.992 14.9948 182.119 14.0085C182.245 13.0169 182.309 12.1071 182.309 11.2764H179.967C179.782 12.0939 179.634 13.1066 179.524 14.3144C179.41 15.5169 179.355 16.9832 179.355 18.7131C179.355 19.6783 179.379 20.4853 179.429 21.1393C179.484 21.788 179.566 22.3735 179.671 22.9009ZM181.517 8.11185C181.396 8.11185 181.225 8.24371 181.001 8.50215C180.774 8.75531 180.55 9.21681 180.325 9.88401H182.224C182.161 9.33548 182.066 8.90299 181.939 8.58654C181.813 8.27008 181.67 8.11185 181.517 8.11185Z" fill="black"/>
<path d="M190.191 23.0591C190.112 23.2701 190.017 23.51 189.906 23.7764C189.793 24.0375 189.666 24.3117 189.526 24.5992C189.405 24.826 189.284 25 189.157 25.1266C189.031 25.2532 188.867 25.3165 188.672 25.3165C188.445 25.3165 188.266 25.2505 188.134 25.116C188.007 24.9763 187.944 24.8101 187.944 24.6203C187.944 24.557 187.947 24.5042 187.955 24.462C187.968 24.4146 188.002 24.3355 188.06 24.23C188.403 23.5707 188.656 22.9932 188.82 22.5C188.988 22.0016 189.126 21.4847 189.231 20.9494C189.131 20.6408 189.062 20.3798 189.02 20.1688C188.983 19.9578 188.967 19.7442 188.967 19.5253C188.967 19.0902 189.057 18.7395 189.242 18.4705C189.431 18.1962 189.69 18.0591 190.022 18.0591C190.323 18.0591 190.563 18.1936 190.739 18.4599C190.914 18.721 191.003 19.0401 191.003 19.4198C191.003 19.6308 190.982 19.8418 190.94 20.0528C190.903 20.2637 190.855 20.5274 190.792 20.8439C191.093 21.5981 191.396 22.2653 191.699 22.8481C192 23.4256 192.272 23.9557 192.512 24.4409C192.749 24.9209 192.944 25.3692 193.092 25.7912C193.245 26.2131 193.324 26.635 193.324 27.057C193.324 27.6134 193.21 28.1408 192.986 28.6393C192.76 29.1403 192.39 29.5622 191.879 29.9051C191.942 29.9209 192.005 29.9262 192.069 29.9262C192.137 29.9262 192.206 29.9262 192.269 29.9262C193.021 29.9262 193.714 29.7548 194.347 29.4093C194.98 29.0665 195.55 28.6234 196.056 28.0802C196.568 27.5317 197.021 26.9251 197.417 26.2553C197.81 25.5881 198.15 24.9262 198.44 24.2722C198.572 23.9636 198.759 23.808 198.999 23.808C199.223 23.808 199.395 23.8898 199.516 24.0506C199.642 24.2062 199.706 24.3776 199.706 24.5675C199.706 24.673 199.687 24.7732 199.653 24.8629C199.505 25.2163 199.315 25.6197 199.083 26.076C198.851 26.5348 198.572 27.0042 198.25 27.4895C197.934 27.9694 197.564 28.4388 197.142 28.903C196.72 29.3618 196.246 29.7732 195.718 30.1371C195.196 30.4958 194.627 30.7832 194.01 31.0021C193.39 31.2184 192.712 31.3291 191.974 31.3291C191.093 31.3291 190.275 31.1735 189.516 30.865C188.756 30.5538 188.137 30.0475 187.659 29.3355C187.58 29.2168 187.543 29.0902 187.543 28.9557C187.543 28.7606 187.617 28.5865 187.765 28.4388C187.918 28.2859 188.094 28.2068 188.292 28.2068C188.503 28.2068 188.682 28.278 188.83 28.4177C188.843 28.4467 188.888 28.4916 188.967 28.5549C189.044 28.6129 189.139 28.6788 189.252 28.7553C189.363 28.8265 189.495 28.8898 189.642 28.9452C189.795 28.9953 189.954 29.019 190.117 29.019C190.434 29.019 190.7 28.9531 190.919 28.8186C191.135 28.6867 191.309 28.5232 191.436 28.3333C191.568 28.1435 191.662 27.9404 191.72 27.7215C191.784 27.5053 191.815 27.3154 191.815 27.1519C191.815 26.8223 191.763 26.4953 191.657 26.1709C191.552 25.8413 191.415 25.5116 191.246 25.1793C191.082 24.8497 190.908 24.5121 190.718 24.1667C190.528 23.8159 190.352 23.4467 190.191 23.0591Z" fill="black"/>
<path d="M18.4435 1.28687C20.068 1.28687 21.7241 1.43454 23.4119 1.7299C25.0997 2.02526 26.7373 2.47885 28.3275 3.09066C29.923 3.6972 31.4288 4.4567 32.8423 5.36914C34.2558 6.28423 35.49 7.35754 36.5448 8.58644C37.5997 9.81007 38.433 11.1972 39.0448 12.7426C39.6566 14.2826 39.9625 15.9889 39.9625 17.8586C39.9625 19.731 39.6303 21.4636 38.971 23.059C38.317 24.6571 37.394 26.0337 36.2073 27.194C35.0179 28.3544 33.5965 29.2668 31.9457 29.9261C30.3001 30.5854 28.4884 30.9177 26.5132 30.9177C25.577 30.9177 24.6065 30.8465 23.6018 30.7067C22.6023 30.5643 21.6002 30.3533 20.5954 30.0632C19.596 29.7758 18.6123 29.4171 17.6419 28.9873C16.6714 28.5601 15.7458 28.0458 14.8676 27.4472C13.8259 28.481 12.6208 29.2879 11.2494 29.8628C9.88341 30.4324 8.44618 30.7172 6.9351 30.7172C6.11759 30.7172 5.35282 30.6223 4.63552 30.4324C3.9235 30.2505 3.30905 29.9894 2.78953 29.6518C2.26738 29.309 1.86126 28.8923 1.5659 28.4071C1.27054 27.9166 1.12286 27.3734 1.12286 26.7826C1.12286 26.271 1.24945 25.7884 1.50261 25.3375C1.76105 24.8892 2.12497 24.4936 2.58911 24.1561C3.05852 23.8132 3.61759 23.5416 4.26632 23.3438C4.92033 23.1408 5.63763 23.0379 6.41822 23.0379C8.70989 23.0379 11.4288 23.8818 14.5722 25.5696C15.1471 24.847 15.6218 24.0295 15.9963 23.1223C16.4024 22.1044 16.7189 21.0601 16.9457 19.9894C17.1777 18.9134 17.3808 17.8428 17.5575 16.7721C17.7394 15.7041 17.9267 14.6624 18.1165 13.6497C18.3064 12.6318 18.5701 11.6745 18.9077 10.7805C19.2452 9.88127 19.6883 9.05849 20.2368 8.31218C20.7853 7.56851 21.4973 6.93033 22.3781 6.4029C22.51 6.33961 22.6313 6.30796 22.7368 6.30796C22.9188 6.30796 23.0902 6.37653 23.2537 6.50838C23.4224 6.64288 23.5068 6.82484 23.5068 7.05691C23.5068 7.33908 23.3803 7.55005 23.1271 7.68982C22.4309 8.09857 21.8613 8.61281 21.4182 9.2299C20.9752 9.84172 20.6086 10.5326 20.3212 11.2974C20.0311 12.0569 19.799 12.8797 19.625 13.7658C19.4562 14.6518 19.2927 15.5748 19.1397 16.5295C19.0052 17.3259 18.8576 18.154 18.6967 19.0189C18.5411 19.8839 18.3433 20.7436 18.106 21.5928C17.866 22.4367 17.5627 23.2673 17.1988 24.0822C16.8402 24.8918 16.3971 25.6408 15.8697 26.3291C15.8961 26.337 15.9145 26.3449 15.9224 26.3502C15.9277 26.3581 15.9462 26.3686 15.9752 26.3818C17.6471 27.3892 19.3876 28.1487 21.1967 28.6603C23.0031 29.1745 24.7674 29.4303 26.4921 29.4303C28.3618 29.4303 30.039 29.1218 31.5237 28.5021C33.0058 27.885 34.2611 27.0516 35.2895 26.0021C36.3233 24.9551 37.1092 23.7315 37.6524 22.3312C38.193 20.9335 38.4646 19.4567 38.4646 17.9008C38.4646 16.3185 38.2009 14.847 37.6735 13.481C37.1461 12.1176 36.4209 10.8755 35.5005 9.75733C34.5854 8.63391 33.4989 7.63444 32.241 6.76155C30.9805 5.89129 29.6197 5.16345 28.1587 4.578C26.703 3.9952 25.1735 3.54952 23.5701 3.23834C21.972 2.92189 20.3686 2.76366 18.76 2.76366C16.6002 2.76366 14.625 2.94826 12.8317 3.31218C11.0438 3.67874 9.50894 4.20881 8.22202 4.90501C6.94037 5.60121 5.94354 6.46092 5.22624 7.47885C4.51421 8.49151 4.16084 9.64657 4.16084 10.9388C4.16084 11.6772 4.26896 12.3312 4.48784 12.9008C4.70409 13.4651 4.98362 13.953 5.32118 14.367C5.65873 14.7837 6.02265 15.1371 6.41822 15.4324C6.81116 15.7225 7.18035 15.9546 7.52582 16.1286C7.86864 16.3053 8.16137 16.4345 8.40135 16.5189C8.6466 16.598 8.79164 16.6429 8.83384 16.6561C9.00261 16.693 9.13447 16.78 9.23468 16.9198C9.33225 17.0622 9.38236 17.2151 9.38236 17.3839C9.38236 17.6107 9.30061 17.7821 9.13974 17.9008C8.98415 18.0221 8.81538 18.0801 8.63341 18.0801C8.37234 18.0801 8.0427 18.0168 7.64185 17.8902C7.24628 17.7637 6.82962 17.5738 6.38658 17.3206C5.94354 17.0622 5.5005 16.7378 5.05746 16.3502C4.6197 15.9572 4.22413 15.4957 3.86548 14.9683C3.5121 14.4409 3.22729 13.8449 3.01105 13.1751C2.79217 12.4999 2.68405 11.7563 2.68405 10.9388C2.68405 9.44878 3.05852 8.10912 3.81274 6.91978C4.57223 5.72516 5.64291 4.7125 7.03004 3.8818C8.41453 3.04583 10.0706 2.40501 11.9984 1.96197C13.9314 1.51366 16.0807 1.28687 18.4435 1.28687ZM13.4963 26.6983C12.125 25.9757 10.8512 25.4298 9.67772 25.0632C8.50947 24.6914 7.43616 24.5042 6.46042 24.5042C5.90398 24.5042 5.38974 24.5675 4.92033 24.694C4.4562 24.8206 4.05008 24.9894 3.70725 25.2004C3.36179 25.4113 3.09016 25.654 2.89502 25.9282C2.69723 26.2025 2.59966 26.4952 2.59966 26.8037C2.59966 27.0938 2.68668 27.3813 2.86337 27.6687C3.04533 27.9588 3.31696 28.2146 3.67561 28.4388C4.03953 28.6656 4.49312 28.8502 5.03637 28.9978C5.57698 29.1402 6.20989 29.2088 6.9351 29.2088C8.17192 29.2088 9.35335 28.9926 10.4794 28.5548C11.6107 28.1118 12.6155 27.4947 13.4963 26.6983Z" fill="black"/>
<path d="M44.174 22.2467C44.1239 22.6053 44.058 22.9402 43.9736 23.2488C43.8945 23.56 43.8206 23.8289 43.7521 24.061C43.6809 24.2931 43.6176 24.483 43.5622 24.6306C43.5121 24.773 43.4805 24.8495 43.4673 24.8627C43.3328 25.166 43.1007 25.3163 42.7711 25.3163C42.5865 25.3163 42.4151 25.2504 42.2542 25.1159C42.0986 24.9761 42.0221 24.7994 42.0221 24.5884C42.0221 24.5041 42.0327 24.446 42.0538 24.4091C42.0801 24.3669 42.1197 24.2878 42.1698 24.1665C42.2252 24.0478 42.2911 23.85 42.3702 23.5758C42.4546 23.3015 42.5548 22.8743 42.6761 22.2889C42.4493 22.2889 42.2173 22.2836 41.9799 22.2678C41.74 22.2546 41.5184 22.2097 41.3154 22.1306C41.1123 22.0542 40.9462 21.9302 40.8196 21.7614C40.6877 21.5874 40.6192 21.3474 40.6192 21.0441C40.6192 20.82 40.6825 20.5167 40.809 20.137C40.9304 19.7519 41.0939 19.3748 41.3048 19.0083C41.5158 18.6364 41.7505 18.3173 42.0116 18.0484C42.2779 17.7741 42.5443 17.637 42.8133 17.637C43.1139 17.637 43.3618 17.7504 43.5517 17.9745C43.7415 18.2013 43.8892 18.4756 43.9947 18.7973C44.1002 19.1217 44.174 19.4619 44.2162 19.8205C44.2637 20.1739 44.2901 20.4824 44.2901 20.7488C44.5142 20.7488 44.7357 20.7461 44.9546 20.7382C45.1709 20.733 45.3792 20.7277 45.577 20.7277C46.3286 20.7277 46.9008 20.8938 47.2964 21.2235C47.6972 21.5557 47.8977 22.0964 47.8977 22.8479C47.8977 23.1512 47.8766 23.4677 47.8344 23.7973C47.7922 24.1217 47.7421 24.4592 47.6867 24.81C47.6366 25.1633 47.5917 25.5114 47.5496 25.8543C47.5126 26.1918 47.4968 26.5267 47.4968 26.8564C47.4968 27.3363 47.5627 27.7293 47.6972 28.0378C47.8291 28.349 47.9952 28.5942 48.193 28.7762C48.3882 28.9608 48.5991 29.09 48.8259 29.1665C49.0501 29.2377 49.2531 29.272 49.4377 29.272C50.0074 29.272 50.5401 29.09 51.0411 28.7235C51.5395 28.3516 52.001 27.9059 52.423 27.3838C52.8449 26.8643 53.2247 26.3158 53.5622 25.7382C53.8998 25.1554 54.1793 24.6465 54.4061 24.2087C54.4694 24.09 54.559 23.9977 54.6804 23.9344C54.799 23.8659 54.923 23.8289 55.0496 23.8289C55.2869 23.8289 55.4741 23.9081 55.6086 24.061C55.7405 24.2087 55.809 24.3775 55.809 24.5673C55.809 24.6939 55.78 24.81 55.7247 24.9154C55.4214 25.4587 55.0706 26.0705 54.6698 26.7509C54.269 27.426 53.8075 28.0642 53.2879 28.6602C52.7737 29.2509 52.1962 29.7546 51.558 30.1686C50.9251 30.5747 50.2236 30.7804 49.4588 30.7804C48.9789 30.7804 48.5306 30.6881 48.1086 30.5062C47.6867 30.3321 47.3201 30.0737 47.0116 29.7361C46.7004 29.3986 46.4551 28.9845 46.2732 28.4914C46.0886 28.0009 45.9989 27.4418 45.9989 26.8142C45.9989 26.1602 46.0622 25.5062 46.1888 24.8522C46.3206 24.1981 46.3892 23.5758 46.3892 22.9851C46.3892 22.7319 46.3312 22.542 46.2204 22.4154C46.107 22.2889 45.8618 22.2256 45.482 22.2256C45.2974 22.2256 45.097 22.2256 44.8808 22.2256C44.6619 22.2256 44.4272 22.2335 44.174 22.2467ZM42.8555 20.791C42.8555 20.6934 42.8502 20.5695 42.8449 20.4218C42.837 20.2688 42.8238 20.1211 42.8027 19.9787C42.7816 19.8311 42.7526 19.7045 42.7183 19.599C42.6893 19.4935 42.655 19.4408 42.6128 19.4408C42.5706 19.4408 42.5205 19.4909 42.4652 19.5884C42.4071 19.6887 42.3439 19.8073 42.2753 19.9471C42.212 20.0895 42.1513 20.2398 42.096 20.4007C42.0459 20.5563 42.0063 20.6855 41.9799 20.791H42.8555Z" fill="black"/>
<path d="M56.7518 28.2066C57.0314 28.5863 57.3874 28.8923 57.8172 29.1243C58.2523 29.3564 58.7877 29.4724 59.4206 29.4724C60.0667 29.4724 60.6548 29.3195 61.1822 29.0083C61.7096 28.6997 62.1896 28.2963 62.6273 27.7952C63.0625 27.2889 63.4528 26.7272 63.7982 26.1074C64.1411 25.4904 64.4522 24.8706 64.7265 24.2509C64.7898 24.1032 64.8795 23.9951 65.0008 23.9239C65.1194 23.8474 65.2539 23.8079 65.4016 23.8079C65.6258 23.8079 65.8051 23.8896 65.9396 24.0505C66.0793 24.2061 66.1506 24.3775 66.1506 24.5674C66.1506 24.6307 66.1426 24.6887 66.1295 24.7361C66.1136 24.7783 66.0925 24.8284 66.0662 24.8838C65.159 26.888 64.1674 28.4018 63.0915 29.4197C62.0155 30.4323 60.7972 30.9492 59.4417 30.9703C58.5767 30.9703 57.8278 30.8015 57.1949 30.464C56.5619 30.1343 56.0372 29.7019 55.6231 29.1665C55.2144 28.6338 54.9111 28.0273 54.716 27.3522C54.5182 26.6771 54.4206 26.0072 54.4206 25.3374C54.4206 24.6623 54.4997 24.0452 54.6632 23.4809C54.832 22.9112 55.0693 22.4155 55.3805 21.9935C55.6891 21.5716 56.0583 21.2419 56.4881 21.002C56.9153 20.7646 57.3874 20.6433 57.9016 20.6433C58.2022 20.6433 58.5029 20.7066 58.7982 20.8332C59.0989 20.9598 59.3679 21.1391 59.5999 21.3712C59.8373 21.6032 60.0271 21.8854 60.1695 22.215C60.3172 22.5394 60.3911 22.9112 60.3911 23.3332C60.3911 23.8764 60.2988 24.3854 60.1168 24.8627C59.9322 25.3348 59.679 25.7778 59.3573 26.1918C59.0329 26.6006 58.6453 26.9777 58.197 27.3205C57.746 27.6581 57.2634 27.9534 56.7518 28.2066ZM56.1611 26.9197C56.5672 26.7456 56.9417 26.5268 57.2792 26.2657C57.6168 25.9993 57.9016 25.7066 58.1337 25.3901C58.371 25.0737 58.5583 24.744 58.6927 24.3986C58.8246 24.0478 58.8932 23.6918 58.8932 23.3332C58.8932 22.9403 58.793 22.6423 58.5978 22.4366C58.4 22.2335 58.168 22.1307 57.9016 22.1307C57.543 22.1307 57.237 22.2309 56.9839 22.426C56.736 22.6238 56.5329 22.8796 56.3721 23.1961C56.2165 23.5125 56.1031 23.8685 56.0345 24.2615C55.9633 24.6491 55.929 25.0315 55.929 25.4112C55.929 25.6512 55.9501 25.9044 55.9923 26.1707C56.0398 26.4318 56.0978 26.6823 56.1611 26.9197Z" fill="black"/>
<path d="M66.9167 23.0591C66.8375 23.2701 66.7426 23.51 66.6319 23.7764C66.5185 24.0375 66.3919 24.3117 66.2521 24.5992C66.1308 24.826 66.0095 25 65.8829 25.1266C65.7563 25.2532 65.5928 25.3165 65.3977 25.3165C65.1709 25.3165 64.9916 25.2505 64.8597 25.116C64.7331 24.9763 64.6698 24.8101 64.6698 24.6203C64.6698 24.557 64.6725 24.5042 64.6804 24.462C64.6936 24.4146 64.7278 24.3355 64.7859 24.23C65.1287 23.5707 65.3819 22.9932 65.5454 22.5C65.7141 22.0016 65.8513 21.4847 65.9567 20.9494C65.8565 20.6408 65.788 20.3798 65.7458 20.1688C65.7089 19.9578 65.693 19.7442 65.693 19.5253C65.693 19.0902 65.7827 18.7395 65.9673 18.4705C66.1572 18.1962 66.4156 18.0591 66.7479 18.0591C67.0485 18.0591 67.2885 18.1936 67.4652 18.4599C67.6392 18.721 67.7289 19.0401 67.7289 19.4198C67.7289 19.6308 67.7078 19.8418 67.6656 20.0528C67.6287 20.2637 67.5812 20.5274 67.5179 20.8439C67.8186 21.5981 68.1218 22.2653 68.4251 22.8481C68.7257 23.4256 68.9974 23.9557 69.2373 24.4409C69.4747 24.9209 69.6698 25.3692 69.8175 25.7912C69.9705 26.2131 70.0496 26.635 70.0496 27.057C70.0496 27.6134 69.9362 28.1408 69.712 28.6393C69.4852 29.1403 69.116 29.5622 68.6044 29.9051C68.6677 29.9209 68.731 29.9262 68.7943 29.9262C68.8629 29.9262 68.9314 29.9262 68.9947 29.9262C69.7463 29.9262 70.4399 29.7548 71.0728 29.4093C71.7057 29.0665 72.2753 28.6234 72.7816 28.0802C73.2932 27.5317 73.7468 26.9251 74.1424 26.2553C74.5353 25.5881 74.8755 24.9262 75.1656 24.2722C75.2975 23.9636 75.4847 23.808 75.7247 23.808C75.9488 23.808 76.1202 23.8898 76.2416 24.0506C76.3681 24.2062 76.4314 24.3776 76.4314 24.5675C76.4314 24.673 76.413 24.7732 76.3787 24.8629C76.231 25.2163 76.0411 25.6197 75.8091 26.076C75.577 26.5348 75.2975 27.0042 74.9757 27.4895C74.6593 27.9694 74.2901 28.4388 73.8681 28.903C73.4462 29.3618 72.9715 29.7732 72.4441 30.1371C71.9219 30.4958 71.3523 30.7832 70.7352 31.0021C70.1155 31.2184 69.4378 31.3291 68.6994 31.3291C67.8186 31.3291 67.001 31.1735 66.2416 30.865C65.4821 30.5538 64.8623 30.0475 64.385 29.3355C64.3059 29.2168 64.269 29.0902 64.269 28.9557C64.269 28.7606 64.3428 28.5865 64.4905 28.4388C64.6435 28.2859 64.8201 28.2068 65.0179 28.2068C65.2289 28.2068 65.4082 28.278 65.5559 28.4177C65.5691 28.4467 65.6139 28.4916 65.693 28.5549C65.7695 28.6129 65.8644 28.6788 65.9778 28.7553C66.0886 28.8265 66.2205 28.8898 66.3681 28.9452C66.5211 28.9953 66.6793 29.019 66.8428 29.019C67.1593 29.019 67.4256 28.9531 67.6445 28.8186C67.8608 28.6867 68.0348 28.5232 68.1614 28.3333C68.2932 28.1435 68.3882 27.9404 68.4462 27.7215C68.5095 27.5053 68.5411 27.3154 68.5411 27.1519C68.5411 26.8223 68.4884 26.4953 68.3829 26.1709C68.2774 25.8413 68.1403 25.5116 67.9715 25.1793C67.808 24.8497 67.634 24.5121 67.4441 24.1667C67.2542 23.8159 67.0775 23.4467 66.9167 23.0591Z" fill="black"/>
<path d="M77.2015 23.0591C77.1224 23.2701 77.0274 23.51 76.9167 23.7764C76.8033 24.0375 76.6767 24.3117 76.5369 24.5992C76.4156 24.826 76.2943 25 76.1677 25.1266C76.0411 25.2532 75.8776 25.3165 75.6825 25.3165C75.4557 25.3165 75.2764 25.2505 75.1445 25.116C75.0179 24.9763 74.9546 24.8101 74.9546 24.6203C74.9546 24.557 74.9573 24.5042 74.9652 24.462C74.9784 24.4146 75.0126 24.3355 75.0707 24.23C75.4135 23.5707 75.6667 22.9932 75.8302 22.5C75.9989 22.0016 76.1361 21.4847 76.2416 20.9494C76.1413 20.6408 76.0728 20.3798 76.0306 20.1688C75.9937 19.9578 75.9778 19.7442 75.9778 19.5253C75.9778 19.0902 76.0675 18.7395 76.2521 18.4705C76.442 18.1962 76.7004 18.0591 77.0327 18.0591C77.3333 18.0591 77.5733 18.1936 77.75 18.4599C77.924 18.721 78.0137 19.0401 78.0137 19.4198C78.0137 19.6308 77.9926 19.8418 77.9504 20.0528C77.9135 20.2637 77.866 20.5274 77.8027 20.8439C78.1034 21.5981 78.4066 22.2653 78.7099 22.8481C79.0105 23.4256 79.2822 23.9557 79.5221 24.4409C79.7595 24.9209 79.9546 25.3692 80.1023 25.7912C80.2553 26.2131 80.3344 26.635 80.3344 27.057C80.3344 27.6134 80.221 28.1408 79.9968 28.6393C79.77 29.1403 79.4008 29.5622 78.8892 29.9051C78.9525 29.9209 79.0158 29.9262 79.0791 29.9262C79.1477 29.9262 79.2162 29.9262 79.2795 29.9262C80.0311 29.9262 80.7247 29.7548 81.3576 29.4093C81.9905 29.0665 82.5601 28.6234 83.0664 28.0802C83.578 27.5317 84.0316 26.9251 84.4272 26.2553C84.8201 25.5881 85.1603 24.9262 85.4504 24.2722C85.5823 23.9636 85.7695 23.808 86.0095 23.808C86.2336 23.808 86.4051 23.8898 86.5264 24.0506C86.6529 24.2062 86.7162 24.3776 86.7162 24.5675C86.7162 24.673 86.6978 24.7732 86.6635 24.8629C86.5158 25.2163 86.3259 25.6197 86.0939 26.076C85.8618 26.5348 85.5823 27.0042 85.2605 27.4895C84.9441 27.9694 84.5749 28.4388 84.1529 28.903C83.731 29.3618 83.2563 29.7732 82.7289 30.1371C82.2067 30.4958 81.6371 30.7832 81.02 31.0021C80.4003 31.2184 79.7226 31.3291 78.9842 31.3291C78.1034 31.3291 77.2859 31.1735 76.5264 30.865C75.7669 30.5538 75.1471 30.0475 74.6698 29.3355C74.5907 29.2168 74.5538 29.0902 74.5538 28.9557C74.5538 28.7606 74.6276 28.5865 74.7753 28.4388C74.9283 28.2859 75.1049 28.2068 75.3027 28.2068C75.5137 28.2068 75.693 28.278 75.8407 28.4177C75.8539 28.4467 75.8987 28.4916 75.9778 28.5549C76.0543 28.6129 76.1493 28.6788 76.2626 28.7553C76.3734 28.8265 76.5053 28.8898 76.6529 28.9452C76.8059 28.9953 76.9641 29.019 77.1276 29.019C77.4441 29.019 77.7104 28.9531 77.9293 28.8186C78.1456 28.6867 78.3196 28.5232 78.4462 28.3333C78.578 28.1435 78.673 27.9404 78.731 27.7215C78.7943 27.5053 78.8259 27.3154 78.8259 27.1519C78.8259 26.8223 78.7732 26.4953 78.6677 26.1709C78.5622 25.8413 78.4251 25.5116 78.2563 25.1793C78.0928 24.8497 77.9188 24.5121 77.7289 24.1667C77.539 23.8159 77.3623 23.4467 77.2015 23.0591Z" fill="black"/>
<path d="M100.588 24.8627C100.53 24.9682 100.419 25.1897 100.25 25.5273C100.086 25.8595 99.8755 26.2419 99.6171 26.677C99.3639 27.1148 99.0633 27.571 98.7204 28.0484C98.3829 28.5204 98.0031 28.9555 97.5812 29.3564C97.1593 29.7519 96.7004 30.0789 96.2099 30.3374C95.7247 30.5906 95.2104 30.7171 94.6698 30.7171C93.9024 30.7171 93.2589 30.4745 92.7394 29.9893C92.2173 29.4988 91.8375 28.8817 91.6002 28.1433C91.1571 28.8975 90.6218 29.4935 89.9968 29.9365C89.3771 30.3796 88.7574 30.6011 88.1403 30.6011C87.655 30.6011 87.212 30.5114 86.8111 30.3374C86.4156 30.1554 86.0833 29.9023 85.809 29.5779C85.5348 29.2562 85.3185 28.8764 85.1656 28.4387C85.0179 28.0035 84.9441 27.5288 84.9441 27.0146C84.9441 25.9888 85.1155 25.0842 85.4609 24.3036C85.8117 23.5178 86.2574 22.8585 86.8006 22.3311C87.3412 21.8036 87.9346 21.4107 88.5833 21.1496C89.2373 20.8833 89.8702 20.7488 90.482 20.7488C90.8882 20.7488 91.2626 20.8068 91.6002 20.9176C91.943 21.031 92.2384 21.1549 92.4863 21.2868C92.7315 21.4133 92.9187 21.5346 93.0453 21.6454C93.1772 21.7588 93.251 21.8221 93.2668 21.8353C93.4145 22.0041 93.4884 22.1834 93.4884 22.3733C93.4884 22.571 93.4145 22.7477 93.2668 22.9007C93.1192 23.0484 92.9451 23.1222 92.75 23.1222C92.539 23.1222 92.3623 23.0484 92.2225 22.9007C92.1935 22.8743 92.1329 22.8242 92.0432 22.753C91.9509 22.6844 91.8243 22.6106 91.6635 22.5315C91.5079 22.4471 91.3206 22.3785 91.1044 22.3205C90.8855 22.2572 90.635 22.2256 90.3555 22.2256C89.9467 22.2256 89.5116 22.3205 89.0474 22.5104C88.5886 22.695 88.1666 22.9824 87.7816 23.3754C87.4019 23.763 87.0801 24.2483 86.8217 24.8311C86.5685 25.4165 86.442 26.1127 86.442 26.9197C86.442 27.1676 86.4657 27.4207 86.5158 27.6792C86.5712 27.9402 86.6661 28.1749 86.8006 28.3859C86.9325 28.5969 87.1091 28.7709 87.328 28.9028C87.5522 29.0294 87.8291 29.0927 88.1614 29.0927C88.3987 29.0927 88.673 29.0162 88.9841 28.8606C89.2927 28.6997 89.588 28.4545 89.8702 28.1222C90.1577 27.7926 90.4135 27.3785 90.6403 26.8775C90.8723 26.3791 91.0332 25.7857 91.1255 25.0948C91.1519 24.9128 91.2363 24.7572 91.3787 24.6306C91.5263 24.5041 91.7004 24.4408 91.9061 24.4408C92.088 24.4408 92.2463 24.5146 92.3808 24.6623C92.5205 24.81 92.597 24.9761 92.6128 25.1581C92.626 25.4112 92.6498 25.7672 92.6867 26.2235C92.7289 26.6744 92.8185 27.1254 92.9609 27.5737C93.1007 28.0167 93.309 28.4044 93.5833 28.734C93.8576 29.0663 94.2399 29.2298 94.7331 29.2298C95.0495 29.2298 95.3607 29.1454 95.6719 28.9766C95.9805 28.8026 96.2837 28.5731 96.5791 28.291C96.8744 28.0114 97.154 27.6897 97.423 27.3311C97.6972 26.9671 97.9451 26.6006 98.1719 26.234C98.3961 25.8622 98.5939 25.5035 98.7626 25.1581C98.9367 24.8152 99.0817 24.5199 99.1951 24.272C99.2637 24.1243 99.3586 24.0135 99.4799 23.9344C99.6065 23.85 99.7436 23.8079 99.8913 23.8079C100.115 23.8079 100.295 23.8922 100.429 24.061C100.569 24.2245 100.64 24.3986 100.64 24.5884C100.64 24.6807 100.622 24.773 100.588 24.8627Z" fill="black"/>
</g>
<defs>
<clipPath id="clip0_4_367">
<rect width="200" height="31.6456" fill="white"/>
</clipPath>
</defs>
</svg>
