<svg width="70" height="37" viewBox="0 0 70 37" fill="none" xmlns="http://www.w3.org/2000/svg">
<g clip-path="url(#clip0_11_99)">
<path d="M0 21.237H5.32739L8.28775 6.51195H2.95966L0 21.237ZM3.25319 4.75568H8.60289L9.48207 0.349999H4.13446L3.25319 4.75568ZM7.3995 25.3806H12.7276L15.9829 9.47161H19.9786L20.5677 6.51195H16.6487L16.7972 5.84611C17.0189 4.59113 17.463 3.18207 19.4606 3.18207C20.6458 3.18207 21.7551 3.25597 22.8643 3.774L23.457 0.666534C22.2207 0.23034 20.92 0.005024 19.6091 0C15.317 0 12.3581 2.51623 11.2474 6.51195H9.39771L8.80578 9.47161H10.6555L7.3995 25.3806Z" fill="white"/>
<path d="M24.2706 21.5334C30.5602 21.5334 34.9261 15.8351 34.9261 11.1735C34.9261 7.69582 31.744 6.21564 28.6366 6.21564C21.753 6.21564 17.9811 12.3609 17.9811 16.5755C17.9811 20.0532 21.2371 21.5334 24.2706 21.5334ZM41.1431 21.5334C47.4327 21.5334 51.7986 15.8351 51.7986 11.1735C51.7986 7.69582 48.5426 6.21564 45.4345 6.21564C38.553 6.21564 34.7797 12.3574 34.7797 16.5755C34.7797 20.0532 38.1096 21.5334 41.1431 21.5334ZM60.4559 21.237H65.7094L70 0.299103H64.6726L63.4142 6.51474L61.1942 6.29303C56.0147 6.29303 51.2792 12.9521 51.2792 17.6882C51.2792 19.6119 52.5342 21.5362 54.683 21.5362C57.7165 21.5362 59.8626 20.056 60.7487 18.5758H61.0443L60.4559 21.237ZM44.0275 32.2627C39.8922 35.689 34.5809 37.3621 29.2285 36.9243C22.1985 36.4802 17.1667 31.0782 16.2792 25.3806H16.5748C18.2028 28.9364 22.1246 32.2627 26.9347 32.7801C31.8151 33.372 37.6641 31.1528 40.8454 28.1185L37.2938 25.3806H48.0232L45.6527 36.7765L44.0986 32.3367L44.0275 32.2627Z" fill="white"/>
</g>
<defs>
<clipPath id="clip0_11_99">
<rect width="70" height="36.9926" fill="white"/>
</clipPath>
</defs>
</svg>
